<?xml version="1.0" encoding="UTF-8" standalone="no"?>
<!-- Created with Inkscape (http://www.inkscape.org/) -->

<svg
   xmlns:dc="http://purl.org/dc/elements/1.1/"
   xmlns:cc="http://creativecommons.org/ns#"
   xmlns:rdf="http://www.w3.org/1999/02/22-rdf-syntax-ns#"
   xmlns:svg="http://www.w3.org/2000/svg"
   xmlns="http://www.w3.org/2000/svg"
   xmlns:sodipodi="http://sodipodi.sourceforge.net/DTD/sodipodi-0.dtd"
   xmlns:inkscape="http://www.inkscape.org/namespaces/inkscape"
   id="svg2985"
   version="1.1"
   inkscape:version="0.48.4 r9939"
   width="398"
   height="102"
   sodipodi:docname="logo.svg">
  <metadata
     id="metadata2991">
    <rdf:RDF>
      <cc:Work
         rdf:about="">
        <dc:format>image/svg+xml</dc:format>
        <dc:type
           rdf:resource="http://purl.org/dc/dcmitype/StillImage" />
        <dc:title></dc:title>
      </cc:Work>
    </rdf:RDF>
  </metadata>
  <defs
     id="defs2989" />
  <sodipodi:namedview
     pagecolor="#ffffff"
     bordercolor="#666666"
     borderopacity="1"
     objecttolerance="10"
     gridtolerance="10"
     guidetolerance="10"
     inkscape:pageopacity="0"
     inkscape:pageshadow="2"
     inkscape:window-width="1366"
     inkscape:window-height="717"
     id="namedview2987"
     showgrid="false"
     inkscape:zoom="1.0837566"
     inkscape:cx="375.08515"
     inkscape:cy="76.714241"
     inkscape:window-x="0"
     inkscape:window-y="26"
     inkscape:window-maximized="1"
     inkscape:current-layer="svg2985" />
  <path
     style="fill:#000000"
     d="m 49.222506,98.4433 c -2.544651,-1.78235 -3.019638,-6.61981 -0.849083,-8.64742 1.147699,-1.07211 0.902851,-1.48082 -1.489778,-2.48685 -2.183313,-0.91801 -3.147582,-2.26716 -4.060815,-5.68163 l -1.197615,-4.47775 -2.447466,1.92517 C 36.433767,81.23324 31.026254,81.62625 29.2,79.8 28.266667,78.86667 28,79.18413 28,81.22857 28,84.51713 25.60317,87 22.428571,87 19.588122,87 16,83.77528 16,81.22251 16,78.33394 18.930672,75 21.46984,75 c 2.202574,0 2.282589,-0.19563 1.225474,-2.99625 -0.927787,-2.45799 -0.82236,-3.51867 0.586864,-5.90429 2.34698,-3.97312 2.179098,-4.75721 -1.161642,-5.42535 -3.615465,-0.7231 -6.115963,-3.16641 -6.135849,-5.99554 -0.0089,-1.26304 -0.324061,-1.71618 -0.75,-1.07827 -1.728129,2.58811 -5.184095,3.53287 -8.0037927,2.18801 -3.7867318,-1.8061 -4.4164921,-7.84448 -1.0630887,-10.19329 3.0090582,-2.10763 5.4131664,-2.01405 7.7280274,0.30081 1.861111,1.86111 1.906502,1.8425 2.4783,-1.0165 0.636431,-3.18215 3.528963,-4.79821 8.940967,-4.99533 1.751695,-0.0638 2.441875,-0.31323 1.533732,-0.55429 -2.331117,-0.61878 -4.204966,-5.74769 -3.557535,-9.73734 0.50202,-3.09358 0.306735,-3.42276 -2.345173,-3.95315 -5.100414,-1.02008 -5.385125,-9.98897 -0.357153,-11.25091 6.303128,-1.58198 10.100749,3.74159 6.403026,8.97588 L 24.776732,26.5 l 3.16232,-3.25 c 3.847384,-3.95406 7.726505,-4.24285 11.734223,-0.87359 L 42.5,24.75282 42.719913,21.7468 c 0.120951,-1.65331 0.918825,-4.07269 1.773052,-5.37641 C 45.875775,14.25996 46.794262,14 52.868065,14 c 7.598158,0 9.406795,1.13209 10.570803,6.61663 l 0.661455,3.11662 3.661281,-1.86662 C 69.775308,20.83998 72.166156,20 73.0746,20 74.853127,20 84,29.20682 84,30.997 c 0,0.59547 -0.876413,2.80059 -1.947583,4.90025 l -1.947584,3.81758 3.931267,1.17784 c 4.141223,1.24074 5.954198,3.45186 5.978642,7.29159 L 90.029484,50.5 91.287913,48 C 93.794647,43.02011 102,45.05381 102,50.65499 102,53.43921 98.740094,57 96.19113,57 c -2.1397,0 -4.745146,-1.89585 -5.497149,-4 -0.338753,-0.94785 -0.565147,-0.64758 -0.615034,0.81574 -0.129197,3.78971 -1.862279,5.97879 -5.32063,6.72058 -4.723359,1.01311 -5.035388,1.39187 -3.312654,4.0211 1.868847,2.85222 2.037348,8.556 0.304337,10.30183 -1.002273,1.00968 -0.901652,1.12662 0.50772,0.59004 C 85.323382,74.28214 89,77.57502 89,81.48787 89,85.27019 86.988046,87 82.588794,87 c -3.020319,0 -6.145531,-4.09983 -5.1395,-6.74228 0.536575,-1.40937 0.419638,-1.50999 -0.590048,-0.50772 -1.562788,1.55131 -6.267807,1.61962 -9.174987,0.13321 C 64.562394,78.28703 57,70.81705 57,69.32952 c 0,-0.86098 1.71954,-1.23352 5.485951,-1.18854 4.291789,0.0513 6.522972,-0.54585 10.25,-2.74314 L 77.5,62.58917 73.25,61.73574 C 70.9125,61.26635 69,60.44504 69,59.9106 69,59.37616 70.547525,57.58015 72.438944,55.91946 75.686036,53.06848 76.928299,50.51735 78.486545,43.5 l 0.66617,-3 -2.881077,2.75 c -1.584591,1.5125 -3.64927,2.75 -4.588174,2.75 -1.432582,0 -1.603868,-0.64557 -1.065152,-4.01452 0.533327,-3.33524 0.07001,-5.15419 -2.738182,-10.75 L 64.5,24.5 64.19774,29.75 c -0.357167,6.2037 -1.596495,6.63012 -5.403277,1.85912 -1.68485,-2.1116 -4.48718,-3.99788 -7.428139,-4.99997 -7.033627,-2.3966 -7.964843,-2.10916 -4.913848,1.51674 1.446645,1.71924 2.486744,3.55645 2.311331,4.08269 -0.175413,0.52624 -3.00653,1.03453 -6.29137,1.12952 -4.620872,0.13364 -6.829133,0.76362 -9.758094,2.7838 l -3.785657,2.61108 4.035657,0.64533 c 4.618666,0.73855 5.239489,2.60289 1.649959,4.95484 C 31.863552,46.13551 28,53.52866 28,56.99004 l 0,2.35859 2.314451,-2.17432 C 31.587399,55.97844 33.392717,55 34.326269,55 c 1.407682,0 1.592828,0.65374 1.084842,3.83052 -0.645606,4.03739 2.380989,12.92212 5.198488,15.26044 C 41.762695,75.04794 42,74.45596 42,70.62245 c 0,-5.50067 1.578539,-6.03635 4.829671,-1.63896 2.559422,3.4618 6.228325,5.56156 11.419255,6.53539 5.409866,1.01489 6.330982,2.63155 4.098077,7.19257 -1.015852,2.07502 -2.810683,4.24347 -3.988513,4.81878 -1.900522,0.92831 -1.984921,1.26017 -0.75,2.94902 C 59.548615,93.13254 59.344486,95.65551 57,98 c -2.402613,2.40261 -4.786212,2.53847 -7.777494,0.4433 z"
     id="path3113"
     inkscape:connector-curvature="0" />
  <path
     style="fill:#59de8f;fill-opacity:0.9982456"
     d="m 55.428571,96.42857 c 1.909714,-1.90971 1.944143,-2.53659 0.265401,-4.83241 -1.864418,-2.54974 -6.099206,-1.76465 -6.520736,1.20888 -0.627011,4.42304 3.224669,6.6542 6.255335,3.62353 z"
     id="path3111"
     inkscape:connector-curvature="0" />
  <path
     style="fill:#59de8f;fill-opacity:0.9982456"
     d="M 58.586199,85.23469 C 59.183609,84.83061 60.1727,83.0375 60.78418,81.25 61.770896,78.3656 61.690974,78 60.073707,78 56.656223,78 49.534361,74.92798 46.653423,72.21115 L 43.778502,69.5 l 0.41584,6.8709 c 0.318265,5.25866 0.858392,7.19449 2.301879,8.25 1.983332,1.45024 10.23403,1.86912 12.089978,0.61379 z"
     id="path3109"
     inkscape:connector-curvature="0" />
  <path
     style="fill:#58dd75;fill-opacity:1"
     d="M 24.418213,84.39301 C 25.336844,84.0405 26,82.618 26,81 c 0,-4.18073 -5.059294,-5.62624 -7,-2 -2.040667,3.81302 1.180478,7.01918 5.418213,5.39301 z"
     id="path3107"
     inkscape:connector-curvature="0" />
  <path
     style="fill:#59dea7;fill-opacity:1"
     d="m 86.800558,81.9144 c 0.362526,-3.11868 -1.960785,-5.31571 -4.701418,-4.44587 -4.695363,1.49026 -3.107384,7.90425 1.815264,7.33203 1.93875,-0.22537 2.660787,-0.94741 2.886154,-2.88616 z"
     id="path3105"
     inkscape:connector-curvature="0" />
  <path
     style="fill:#58dd75;fill-opacity:1"
     d="M 37.370365,77.71845 C 39.011428,76.51848 38.928113,76.06643 36.061495,70.6169 34.312438,67.29189 33,63.27358 33,61.24347 c 0,-3.54991 -0.0021,-3.55155 -2.107927,-1.64846 -2.786731,2.51844 -5.468151,6.38443 -6.310069,9.09766 -0.519238,1.67334 0.187796,3.15364 2.985167,6.25 3.820387,4.22871 6.700803,5.0443 9.803194,2.77578 z"
     id="path3103"
     inkscape:connector-curvature="0" />
  <path
     style="fill:#59dea7;fill-opacity:1"
     d="M 78.383638,74.99712 C 80.372637,72.79554 82,70.74819 82,70.44746 82,70.14673 81.296378,68.54003 80.436397,66.877 78.879879,63.86703 78.860619,63.86131 76.186397,65.61466 70.855135,69.11009 68.42448,69.98817 64,70.01702 l -4.5,0.0293 4.69179,4.47682 c 6.168626,5.88599 9.210607,5.98758 14.191848,0.47394 z"
     id="path3101"
     inkscape:connector-curvature="0" />
  <path
     style="fill:#5bdfd2;fill-opacity:1"
     d="M 84.532119,58.55103 C 87.936395,57.12863 88,56.99332 88,51.17347 c 0,-6.33427 -0.746177,-7.56969 -5.255594,-8.70148 -2.254192,-0.56577 -2.745402,-0.35685 -2.749983,1.1696 -0.01282,4.27331 -2.413809,9.9778 -5.497499,13.06149 L 71.2,60 l 4.932119,0 c 2.712665,0 6.492665,-0.65204 8.4,-1.44897 z"
     id="path3099"
     inkscape:connector-curvature="0" />
  <path
     style="fill:#61de55;fill-opacity:1"
     d="m 26,56.46788 c 0,-3.31789 2.570416,-9.38171 5.133238,-12.1097 2.015523,-2.14543 2.016275,-2.17595 0.0689,-2.79402 -2.512748,-0.79752 -11.411444,1.16729 -12.41155,2.74044 -0.417978,0.65747 -0.766851,3.53238 -0.775273,6.3887 -0.01251,4.24311 0.391322,5.47811 2.207193,6.75 C 23.645199,59.84064 26,59.44308 26,56.46788 z"
     id="path3097"
     inkscape:connector-curvature="0" />
  <path
     style="fill:#5bdfd2;fill-opacity:1"
     d="m 98.954319,53.55504 c 0.659565,-0.79472 1.052161,-2.48222 0.872445,-3.75 C 99.227536,45.578 92,46.60985 92,50.92244 c 0,3.6785 4.631278,5.4317 6.954319,2.6326 z"
     id="path3095"
     inkscape:connector-curvature="0" />
  <path
     style="fill:#61de55;fill-opacity:1"
     d="m 12.960174,52.54799 c 1.450683,-1.74797 0.5567,-5.13567 -1.570683,-5.95202 -3.48812,-1.33852 -7.3250779,4.13511 -4.7228243,6.73736 1.1883726,1.18838 5.0560133,0.70575 6.2935073,-0.78534 z"
     id="path3093"
     inkscape:connector-curvature="0" />
  <path
     style="fill:#5ad1df;fill-opacity:1"
     d="M 79.419371,36.54983 C 80.838717,34.37724 82,31.92121 82,31.09199 82,28.92618 74.939214,22 72.731311,22 c -1.556112,0 -5.264742,1.44787 -6.582298,2.56977 -0.193043,0.16438 0.763762,1.79093 2.126234,3.61455 3.03411,4.06106 5.083642,10.15794 4.478625,13.32288 -0.437674,2.28955 -0.385332,2.30899 1.817108,0.67513 1.24727,-0.92528 3.429046,-3.45991 4.848391,-5.6325 z"
     id="path3091"
     inkscape:connector-curvature="0" />
  <path
     style="fill:#93df58;fill-opacity:1"
     d="M 29.508832,35.98571 C 30.817152,33.8688 38.089364,31 42.147253,31 l 4.226929,0 -2.937091,-3.08928 C 40.138603,24.44132 35.971172,22 33.347267,22 30.727483,22 25,28.01199 25,30.76191 c 0,4.42979 2.913433,7.80521 4.508832,5.2238 z"
     id="path3089"
     inkscape:connector-curvature="0" />
  <path
     style="fill:#5cb5e4;fill-opacity:1"
     d="M 61.52558,20.28466 C 60.800651,16.42046 58.55652,15 53.176525,15 c -4.588782,0 -7.913721,2.36934 -8.36635,5.96184 -0.274748,2.18066 0.166521,2.54442 3.863425,3.18481 5.255068,0.91031 9.983414,3.32562 11.587571,5.91912 1.119156,1.80937 1.269608,1.59116 1.557443,-2.25895 0.175237,-2.34399 0.04337,-5.72896 -0.293034,-7.52216 z"
     id="path3087"
     inkscape:connector-curvature="0" />
  <path
     style="fill:#93df58;fill-opacity:1"
     d="m 26,22 c 1.636852,-3.05849 -0.42816,-6.20147 -3.817258,-5.80993 -2.739018,0.31643 -4.008168,3.21652 -2.793208,6.38266 C 20.213361,24.71958 24.755114,24.32609 26,22 z"
     id="path3085"
     inkscape:connector-curvature="0" />
  <g
     id="g3215">
    <path
       inkscape:connector-curvature="0"
       id="path3083"
       d="m 199.65499,65.17126 c -4.96159,-5.4825 2.49032,-21.99776 9.47772,-21.00495 2.93283,0.41671 5.61231,5.42768 4.14685,7.75514 -1.57428,2.50027 -4.02789,2.44235 -4.85403,-0.11458 -0.67865,-2.10048 -0.95155,-1.86085 -3.0502,2.67836 -2.81394,6.08633 -1.89289,7.60887 3.14858,5.20476 C 210.47308,58.76049 212.50259,58 213.03393,58 c 2.10148,0 0.79603,3.96529 -2.11066,6.41111 -3.67979,3.09634 -8.83909,3.44438 -11.26828,0.76015 z"
       style="fill:#000000" />
    <path
       inkscape:connector-curvature="0"
       id="path3081"
       d="m 209.69424,62.43646 2.80576,-2.56353 -2.69218,1.64066 c -1.48071,0.90237 -3.73071,1.49346 -5,1.31354 -3.36089,-0.4764 -3.68422,-6.23699 -0.60518,-10.78188 2.88484,-4.25823 4.56678,-4.84278 5.63392,-1.95803 0.45874,1.2401 1.08035,1.84028 1.38134,1.33375 C 212.06581,49.99408 210.22489,46 208.71932,46 c -3.5299,0 -10.17649,11.15783 -8.93533,15 1.5192,4.70286 5.67579,5.30535 9.91025,1.43646 z"
       style="fill:#5cb5e4;fill-opacity:1" />
    <path
       id="path3071"
       d="M 172.5 44.15625 C 171.39161 44.187356 170.22205 44.4917 169.09375 45.125 C 162.39005 48.88769 159.32682 61.01106 164.21875 64.4375 C 167.21313 66.53484 170.8318 66.40122 174.71875 64.03125 C 177.74716 62.18476 179.99442 57.68192 178.59375 56.28125 C 178.24654 55.93404 176.17449 56.66656 173.96875 57.90625 C 171.76302 59.14594 169.44868 59.99331 168.8125 59.78125 C 168.17632 59.56919 169.40194 58.46117 171.5625 57.34375 C 176.33096 54.87755 178.54355 51.34727 177.625 47.6875 C 177.04375 45.371608 174.93846 44.087818 172.5 44.15625 z M 172.25 49.0625 C 172.36939 49.086355 172.4728 49.129054 172.5625 49.21875 C 172.79874 49.45498 171.82248 50.76242 170.375 52.09375 C 167.86587 54.40156 167.78708 54.40455 168.875 52.3125 C 169.93097 50.281896 171.41428 48.895513 172.25 49.0625 z "
       style="fill:#000000" />
    <path
       id="path3069"
       d="M 173.46875 46.03125 C 170.48798 45.942207 165.68974 49.84015 164.25 54.53125 C 163.12188 58.207 163.39698 60.34097 165.34375 62.84375 C 166.6933 64.57874 172.55889 63.6973 175.125 61.375 C 177.70461 59.04048 176.75091 58.4723 173.65625 60.5 C 170.3911 62.6394 166.57526 62.12641 166.21875 59.5 C 166.01507 57.99947 166.96312 57.09606 169.96875 55.84375 C 174.12976 54.11003 176.71669 50.32596 175.65625 47.5625 C 175.26099 46.532452 174.46234 46.060931 173.46875 46.03125 z M 172.25 49.0625 C 172.36939 49.086355 172.4728 49.129054 172.5625 49.21875 C 172.79874 49.45498 171.82248 50.76242 170.375 52.09375 C 167.86587 54.40156 167.78708 54.40455 168.875 52.3125 C 169.93097 50.281896 171.41428 48.895513 172.25 49.0625 z "
       style="fill:#5cb5e4;fill-opacity:1" />
    <path
       id="path3067"
       d="M 172.8125 47.21875 C 169.75566 47.351617 165.03393 52.608541 166.53125 55.03125 C 167.53823 56.66058 169.00588 56.11913 172.0625 53.0625 C 175.13942 49.98558 175.66835 48.5311 174 47.5 C 173.65457 47.286515 173.24919 47.199769 172.8125 47.21875 z M 172.25 49.0625 C 172.36939 49.086355 172.4728 49.129054 172.5625 49.21875 C 172.79874 49.45498 171.82248 50.76242 170.375 52.09375 C 167.86587 54.40156 167.78708 54.40455 168.875 52.3125 C 169.93097 50.281896 171.41428 48.895513 172.25 49.0625 z "
       style="fill:#000000" />
    <path
       inkscape:connector-curvature="0"
       id="path3063"
       d="m 181.70885,65.37552 c -1.29365,-1.29365 -0.78994,-16.88236 0.60725,-18.79313 1.80948,-2.47462 5.20729,-1.65863 5.10167,1.22518 l -0.0822,2.24515 2.63696,-2.52636 C 194.24157,43.43632 199,44.6435 199,49.81658 c 0,2.05332 -0.38467,2.34304 -2.55902,1.92739 -2.01288,-0.38479 -3.12668,0.22224 -5.21894,2.8444 -1.46297,1.83347 -3.13655,5.03864 -3.71908,7.12261 -1.01849,3.64356 -3.95675,5.50189 -5.79411,3.66454 z"
       style="fill:#000000" />
    <path
       inkscape:connector-curvature="0"
       id="path3061"
       d="m 185.88682,59.98342 c 1.57465,-5.2557 6.83311,-11.28992 9.28071,-10.64986 2.2975,0.60081 2.42962,-1.16718 0.15252,-2.04099 -1.1813,-0.4533 -2.81013,0.62889 -5.48746,3.64586 -3.03225,3.41692 -3.93382,3.96134 -4.42789,2.67381 -0.34122,-0.88919 -0.33829,-2.74071 0.007,-4.11448 0.6829,-2.72092 -0.819,-3.48341 -1.80422,-0.91597 C 182.68417,50.98662 182.88228,64 183.84171,64 c 0.46294,0 1.38324,-1.80746 2.04511,-4.01658 z"
       style="fill:#5cb5e4;fill-opacity:1" />
    <path
       id="path3059"
       d="M 227.125 44.125 C 225.75128 44.257565 224.32903 45.02601 222.4375 46.46875 C 219.10125 49.01343 215 56.21416 215 59.5 C 215 62.10959 217.89234 65 220.5 65 C 221.70945 65 223.88843 63.91124 225.34375 62.5625 C 227.59874 60.47264 228 60.35045 228 61.84375 C 228 62.80749 228.5275 64.1525 229.1875 64.8125 C 230.61482 66.23982 231.99488 66.31115 233.96875 65.0625 C 235.20721 64.27907 235.21303 63.74355 234.0625 61.59375 C 233.12474 59.84154 232.88119 57.2516 233.3125 53.125 C 233.89052 47.5948 233.76971 47.08091 231.5 45.59375 C 229.82359 44.49532 228.49872 43.992435 227.125 44.125 z M 227.03125 50 C 227.56142 50 228 50.44192 228 51 C 228 52.34775 221.06605 59.77919 221.03125 58.46875 C 220.99094 56.9526 225.91687 50 227.03125 50 z "
       style="fill:#000000" />
    <path
       id="path3057"
       d="M 226.875 46.21875 C 226.14939 46.325702 225.37753 46.7836 224.21875 47.625 C 220.45104 50.36078 216.33179 58.72197 217.6875 60.875 C 219.30985 63.4515 221.49741 63.29594 224.96875 60.375 C 227.60012 58.16085 228.3316 57.93909 229.0625 59.09375 C 229.55485 59.87156 229.99158 61.2875 230 62.25 C 230.008 63.2125 230.73266 64 231.625 64 C 232.95058 64 233.01259 63.72009 232 62.5 C 231.18965 61.52359 230.91904 58.77854 231.1875 54.5625 C 231.56482 48.63673 231.40795 48.01318 229.28125 46.875 C 228.2988 46.34921 227.60061 46.111798 226.875 46.21875 z M 227.03125 50 C 227.56142 50 228 50.44192 228 51 C 228 52.34775 221.06605 59.77919 221.03125 58.46875 C 220.99094 56.9526 225.91687 50 227.03125 50 z "
       style="fill:#5cb5e4;fill-opacity:1" />
    <path
       id="path3055"
       d="M 228.0625 48.15625 C 227.39406 48.178073 226.54672 48.425287 225.53125 48.96875 C 222.7371 50.46413 218.61131 57.54108 219.375 59.53125 C 220.31993 61.99367 222.59849 61.18014 226.375 57 C 230.53622 52.394027 230.95906 48.061684 228.0625 48.15625 z M 227.03125 50 C 227.56142 50 228 50.44192 228 51 C 228 52.34775 221.06605 59.77919 221.03125 58.46875 C 220.99094 56.9526 225.91687 50 227.03125 50 z "
       style="fill:#000000;fill-opacity:1" />
    <path
       id="path3051"
       d="M 270.4375 43.9375 C 265.15845 43.899253 259 49.921638 259 58.46875 C 259 60.66754 259.75498 62.75498 261 64 C 263.94162 66.94162 268.31885 66.52629 272.40625 62.9375 C 276.93077 58.96496 278.55766 54.21977 277 49.5 C 275.73126 45.655679 273.20271 43.957534 270.4375 43.9375 z M 269.4375 50 C 272.82196 50 271.80373 56.9687 268.125 58.9375 C 265.27929 60.46048 265 60.31071 265 57.21875 C 265 54.02766 267.4715 50 269.4375 50 z "
       style="fill:#000000" />
    <path
       id="path3049"
       d="M 269.875 46.28125 C 267.13337 46.368212 264.06663 48.557412 262.40625 52.53125 C 258.6216 61.5892 263.57657 67.28972 270.5 61.84375 C 274.472 58.71937 276.22863 53.97679 274.875 50.09375 C 273.95044 47.441564 272.00738 46.213613 269.875 46.28125 z M 269.4375 50 C 272.82196 50 271.80373 56.9687 268.125 58.9375 C 265.27929 60.46048 265 60.31071 265 57.21875 C 265 54.02766 267.4715 50 269.4375 50 z "
       style="fill:#5cb5e4;fill-opacity:1" />
    <path
       id="path3047"
       d="M 269.5 48.34375 C 267.66618 48.49169 265.71407 49.681434 264.53125 51.96875 C 262.96889 54.99002 262.47579 60.16329 263.65625 61.34375 C 266.5161 64.20361 274 57.98793 274 52.75 C 274 49.684713 271.85777 48.153541 269.5 48.34375 z M 269.4375 50 C 272.82196 50 271.80373 56.9687 268.125 58.9375 C 265.27929 60.46048 265 60.31071 265 57.21875 C 265 54.02766 267.4715 50 269.4375 50 z "
       style="fill:#000000;fill-opacity:1" />
    <path
       transform="translate(0,-120)"
       d="m 136.3125,159.125 c -0.30218,0.004 -0.63982,0.12859 -1.125,0.53125 -0.5161,0.42833 -1.25,2.02357 -1.25,3.0625 0,0.90371 -0.26169,2.40448 -0.65625,4.375 -0.39456,1.97052 -0.93155,4.3385 -1.53125,6.625 -0.58701,2.23816 -1.04131,4.43959 -1.3125,6.1875 -0.1356,0.87396 -0.24955,1.62107 -0.28125,2.1875 -0.0317,0.56643 0.0728,1.01449 0.0313,0.90625 0.14945,0.38946 1.09499,1.0625 1.8125,1.0625 0.29577,0 0.60152,-0.16432 1,-0.6875 0.39848,-0.52318 0.80714,-1.36326 1.15625,-2.375 0.69822,-2.02347 1.20186,-4.68487 1.59375,-6.96875 0.19961,-1.16328 0.26897,-1.86169 0.625,-2.5 0.089,-0.15958 0.20932,-0.31347 0.4375,-0.46875 0.22818,-0.15528 0.59382,-0.24617 0.875,-0.1875 0.56236,0.11734 0.73147,0.42156 0.9375,0.6875 0.82414,1.06376 1.7382,3.10718 3.71875,6.3125 0.20028,0.32413 0.27335,0.34559 0.5,0.34375 0.22665,-0.002 0.69077,-0.16099 1.28125,-0.5625 1.18095,-0.80301 2.77098,-2.49525 4.46875,-4.71875 l 3.25,-4.25 a 0.93326602,0.93326602 0 0 1 1.6875,0.5625 l -0.0625,7.625 c -0.0218,3.73651 0.0443,5.68028 0.25,6.3125 0.10287,0.31611 0.0774,0.27138 0.1875,0.3125 0.11011,0.0411 0.49008,0.0625 1.09375,0.0625 0.59132,0 0.95081,-0.044 1.0625,-0.0937 0.11169,-0.0497 0.15607,-0.0584 0.3125,-0.5 0.31287,-0.88315 0.54242,-3.16142 0.875,-7.53125 0.37811,-4.96802 0.96268,-10.35407 1.3125,-12.21875 0.30184,-1.60894 -0.0275,-2.78075 -0.5625,-3.40625 -0.53497,-0.6255 -1.28497,-0.88564 -2.5,-0.5 0.008,-0.002 -0.3448,0.19134 -0.75,0.53125 -0.4052,0.33991 -0.9225,0.83035 -1.46875,1.40625 -1.0925,1.1518 -2.36411,2.70142 -3.53125,4.3125 -1.20744,1.66671 -2.35665,3.10106 -3.28125,4.125 -0.4623,0.51197 -0.86561,0.92636 -1.21875,1.21875 -0.17657,0.14619 -0.3366,0.26898 -0.5625,0.375 -0.11295,0.053 -0.25316,0.11193 -0.46875,0.125 -0.21559,0.0131 -0.5514,-0.0827 -0.78125,-0.3125 -0.32627,-0.32626 -0.34995,-0.49537 -0.53125,-0.84375 -0.1813,-0.34838 -0.41732,-0.79059 -0.65625,-1.3125 -0.47785,-1.04381 -1.0565,-2.39826 -1.625,-3.8125 -0.88088,-2.19133 -1.70463,-3.77698 -2.46875,-4.75 -0.76412,-0.97302 -1.38055,-1.25671 -1.84375,-1.25 z"
       id="path3917"
       style="fill:#5cb5e4;fill-opacity:1"
       inkscape:original="M 136.3125 158.1875 C 135.74123 158.1955 135.18053 158.45052 134.59375 158.9375 C 133.72265 159.66045 133 161.3511 133 162.71875 C 133 164.0864 132.03323 168.93356 130.84375 173.46875 C 129.65428 178.00394 128.96529 182.43894 129.3125 183.34375 C 129.65971 184.24857 130.86912 185 132 185 C 134.64638 185 135.86902 178.77532 136.65625 174.1875 C 137.44347 169.59968 137.55386 171.88743 141.5625 178.375 C 142.87116 180.49293 145.88849 178.02522 149.34375 173.5 L 152.59375 169.25 L 152.53125 176.875 C 152.48765 184.35312 152.54805 184.5 155 184.5 C 157.43063 184.5 157.52196 184.24473 158.1875 175.5 C 158.564 170.55313 159.14711 165.12071 159.46875 163.40625 C 160.146 159.7962 158.1804 157.49751 155.21875 158.4375 C 154.1813 158.76677 151.38273 161.71097 149 165 C 146.61726 168.28904 144.39841 170.74216 144.09375 170.4375 C 143.78908 170.13284 142.62718 167.5853 141.5 164.78125 C 139.70193 160.30826 138.02631 158.16268 136.3125 158.1875 z "
       inkscape:radius="-0.9331727"
       sodipodi:type="inkscape:offset" />
    <path
       sodipodi:nodetypes="sssssscsssssscsscszsssssssssssssscz"
       inkscape:connector-curvature="0"
       id="path3019"
       d="m 131.99337,65 c -1.13088,0 -2.34022,-0.7403 -2.68743,-1.64512 -0.34721,-0.90481 0.34191,-5.35573 1.53138,-9.89092 C 132.0268,48.92877 133,44.09917 133,42.73152 c 0,-1.36765 0.71272,-3.07814 1.58382,-3.80109 2.34711,-1.94792 4.52041,-0.1083 6.91783,5.85569 1.12718,2.80405 2.29868,5.34755 2.60335,5.65221 0.30466,0.30466 2.50343,-2.1371 4.88617,-5.42614 2.38273,-3.28903 5.18107,-6.24947 6.21852,-6.57874 2.96165,-0.93999 4.92144,1.35067 4.24419,4.96072 -0.32164,1.71446 -0.89284,7.16464 -1.26934,12.11151 C 157.519,64.25041 157.43063,64.5 155,64.5 c -2.45196,0 -2.49915,-0.1465 -2.45553,-7.62462 l 0.0445,-7.62462 -3.24371,4.24815 c -3.45526,4.52522 -6.48819,6.99921 -7.79685,4.88128 -4.00864,-6.48757 -4.10584,-8.78256 -4.89306,-4.19474 C 135.86812,58.77327 134.63975,65 131.99337,65 z m 7.09681,-14.80708 c 1.77809,3.7509 3.45813,6.80708 3.93178,6.80708 0.47365,0 2.93879,-2.7 5.47808,-6 2.53929,-3.3 5.05676,-6 5.59438,-6 0.61456,0 0.72523,3.3415 0.29807,9 -0.43507,5.76332 -0.32126,9 0.31647,9 0.54773,0 1.30334,-4.1625 1.67913,-9.25 0.37579,-5.0875 0.77971,-10.10157 0.8976,-11.14237 C 157.7423,38.57613 155.03481,40.20842 150,47 c -2.88798,3.89567 -5.75693,6.91925 -6.37544,6.71907 -0.61851,-0.20018 -2.19648,-3.38656 -3.5066,-7.08084 -1.3136,-3.70408 -2.88329,-6.54979 -3.49954,-6.34437 -0.61463,0.20488 -1.4127,2.43619 -1.7735,4.95847 -0.3608,2.52228 -1.3735,7.0541 -2.25046,10.07072 C 130.75667,61.64485 130.63922,63 131.9291,63 c 0.51101,0 1.43951,-2.5875 2.06334,-5.75 1.86614,-7.92391 3.31966,-10.80799 5.09774,-7.05708 z"
       style="fill:#000000" />
    <path
       id="path3017"
       d="M 255.1875 34.15625 C 255.009 34.160524 254.82578 34.158779 254.625 34.1875 C 252.99932 34.42004 252.19993 35.71911 251.125 39.75 C 249.82882 44.61054 249.47436 45 246.6875 45 C 244.47735 45 242.69525 46.06815 239.90625 49 C 235.32272 53.8183 234.00727 58.83869 236.40625 62.5 C 238.40773 65.55463 241.79486 65.73572 245.3125 62.96875 L 247.90625 60.9375 L 248.96875 62.96875 C 251.01836 66.79848 258 64.28496 258 59.71875 C 258 58.24942 257.49804 57.8895 256 58.28125 C 254.26783 58.73422 254 58.30915 254 55.125 C 254 53.10294 254.90611 48.22866 256 44.28125 C 258.0646 36.830872 257.86496 34.09214 255.1875 34.15625 z M 247.34375 49.96875 C 248.56391 49.811561 248.17902 52.061931 245.4375 55.65625 C 244.03451 57.49566 242.45951 59 241.9375 59 C 240.18549 59 240.9827 56.16557 243.59375 53.0625 C 245.31701 51.014527 246.61165 50.063063 247.34375 49.96875 z "
       style="fill:#000000" />
    <path
       id="path3015"
       d="M 254.84375 36.4375 C 254.37978 36.473643 253.54239 38.657406 252.90625 41.5 C 251.72442 46.78096 251.53987 47 248.46875 47 C 242.28474 47 235.59154 55.61334 237.875 60.625 C 239.22462 63.58708 240.94736 63.62491 244.5625 60.78125 C 248.36316 57.79165 249.72197 57.74282 250.4375 60.59375 C 250.76871 61.91337 251.68668 63 252.46875 63 C 254.52249 63 255.2585 61.2998 253.5 60.625 C 251.38992 59.81529 251.56097 52.06388 253.875 43.71875 C 254.90427 40.0069 255.37573 36.7396 254.9375 36.46875 C 254.91011 36.451822 254.87468 36.43509 254.84375 36.4375 z M 247.34375 49.96875 C 248.56391 49.811561 248.17902 52.061931 245.4375 55.65625 C 244.03451 57.49566 242.45951 59 241.9375 59 C 240.18549 59 240.9827 56.16557 243.59375 53.0625 C 245.31701 51.014527 246.61165 50.063063 247.34375 49.96875 z "
       style="fill:#5cb5e4;fill-opacity:1" />
    <path
       id="path3013"
       d="M 247.125 48 C 243.36926 48 237.62607 56.95599 239.46875 59.9375 C 240.63976 61.83224 243.12484 61.05323 246.09375 57.875 C 250.65241 52.99495 251.18049 48 247.125 48 z M 247.34375 49.96875 C 248.56391 49.811561 248.17902 52.061931 245.4375 55.65625 C 244.03451 57.49566 242.45951 59 241.9375 59 C 240.18549 59 240.9827 56.16557 243.59375 53.0625 C 245.31701 51.014527 246.61165 50.063063 247.34375 49.96875 z "
       style="fill:#000000;fill-opacity:1" />
  </g>
  <g
     id="g3235">
    <path
       inkscape:connector-curvature="0"
       id="path3079"
       d="m 292.96579,64.93608 c -1.66434,-3.10985 0.44803,-5.13668 4.55122,-4.36691 3.45179,0.64756 10.00004,-1.92354 9.00392,-3.5353 -0.29945,-0.48452 -2.79345,-1.62795 -5.54221,-2.54094 -7.18467,-2.38636 -9.32911,-7.94256 -4.72872,-12.252 6.23907,-5.8445 17.75,-5.63332 17.75,0.32564 0,3.13017 -2.50759,4.18903 -4.86599,2.05471 -2.12985,-1.92749 -3.20307,-2.00257 -6.58696,-0.46077 -3.80468,1.73353 -3.0996,3.47025 2.20295,5.42625 6.19808,2.28634 8.25,4.12534 8.25,7.39391 0,6.94916 -16.96697,13.68659 -20.03421,7.95541 z"
       style="fill:#000000" />
    <path
       inkscape:connector-curvature="0"
       id="path3077"
       d="m 304.97476,62.75 c 8.17553,-4.18206 7.98115,-7.88953 -0.58017,-11.06603 -6.10405,-2.26478 -6.79678,-2.94536 -6.04535,-5.93932 1.07506,-4.28337 8.39041,-6.19523 11.82202,-3.08966 C 311.77593,44.1072 312,44.1203 312,42.76198 c 0,-3.44233 -7.27358,-3.7261 -12.10212,-0.47215 -2.57906,1.73803 -3.39788,3.00105 -3.39788,5.24116 0,2.63189 0.57434,3.18028 5.30656,5.06673 6.27436,2.50121 7.67492,3.70519 6.84028,5.88021 -0.84609,2.20487 -7.37651,4.78874 -10.8241,4.28275 C 295.9359,62.48375 295,62.7863 295,63.67319 c 0,2.05987 5.05838,1.5917 9.97476,-0.92319 z"
       style="fill:#5cb5e4;fill-opacity:1" />
    <path
       inkscape:connector-curvature="0"
       id="path3075"
       d="m 336.65499,65.17126 c -4.96159,-5.4825 2.49032,-21.99776 9.47772,-21.00495 2.93283,0.41671 5.61231,5.42768 4.14685,7.75514 -1.57428,2.50027 -4.02789,2.44235 -4.85403,-0.11458 -0.67865,-2.10048 -0.95155,-1.86085 -3.0502,2.67836 -2.81394,6.08633 -1.89289,7.60887 3.14858,5.20476 C 347.47308,58.76049 349.50259,58 350.03393,58 c 2.10148,0 0.79603,3.96529 -2.11066,6.41111 -3.67979,3.09634 -8.83909,3.44438 -11.26828,0.76015 z"
       style="fill:#000000" />
    <path
       inkscape:connector-curvature="0"
       id="path3073"
       d="m 346.69424,62.43646 2.80576,-2.56353 -2.69218,1.64066 c -1.48071,0.90237 -3.73071,1.49346 -5,1.31354 -3.36089,-0.4764 -3.68422,-6.23699 -0.60518,-10.78188 2.88484,-4.25823 4.56678,-4.84278 5.63392,-1.95803 0.45874,1.2401 1.08035,1.84028 1.38134,1.33375 C 349.06581,49.99408 347.22489,46 345.71932,46 c -3.5299,0 -10.17649,11.15783 -8.93533,15 1.5192,4.70286 5.67579,5.30535 9.91025,1.43646 z"
       style="fill:#5cb5e4;fill-opacity:1" />
    <path
       id="path3043"
       d="M 326.4375 43.9375 C 321.15845 43.899253 315 49.921638 315 58.46875 C 315 60.66754 315.75498 62.75498 317 64 C 319.94162 66.94162 324.31885 66.52629 328.40625 62.9375 C 332.93077 58.96496 334.55766 54.21977 333 49.5 C 331.73126 45.655679 329.20271 43.957534 326.4375 43.9375 z M 325.4375 50 C 328.82196 50 327.80373 56.9687 324.125 58.9375 C 321.27929 60.46048 321 60.31071 321 57.21875 C 321 54.02766 323.4715 50 325.4375 50 z "
       style="fill:#000000" />
    <path
       id="path3041"
       d="M 325.875 46.28125 C 323.13337 46.368212 320.06663 48.557412 318.40625 52.53125 C 314.6216 61.5892 319.57657 67.28972 326.5 61.84375 C 330.472 58.71937 332.22863 53.97679 330.875 50.09375 C 329.95044 47.441564 328.00738 46.213613 325.875 46.28125 z M 325.4375 50 C 328.82196 50 327.80373 56.9687 324.125 58.9375 C 321.27929 60.46048 321 60.31071 321 57.21875 C 321 54.02766 323.4715 50 325.4375 50 z "
       style="fill:#5cb5e4;fill-opacity:1" />
    <path
       id="path3039"
       d="M 325.5 48.34375 C 323.66618 48.49169 321.71407 49.681434 320.53125 51.96875 C 318.96889 54.99002 318.47579 60.16329 319.65625 61.34375 C 322.5161 64.20361 330 57.98793 330 52.75 C 330 49.684713 327.85777 48.153541 325.5 48.34375 z M 325.4375 50 C 328.82196 50 327.80373 56.9687 324.125 58.9375 C 321.27929 60.46048 321 60.31071 321 57.21875 C 321 54.02766 323.4715 50 325.4375 50 z "
       style="fill:#000000" />
    <path
       inkscape:connector-curvature="0"
       id="path3035"
       d="m 353.97648,64.47165 c -1.12068,-1.35033 -1.10565,-3.03245 0.092,-10.29288 C 355.4225,45.96983 355.63534,45.5 358,45.5 c 2.80484,0 2.89111,0.88644 1.31263,13.48704 -0.85947,6.86092 -2.65894,8.71046 -5.33615,5.48462 z"
       style="fill:#000000" />
    <path
       inkscape:connector-curvature="0"
       id="path3033"
       d="m 358.43288,50.25 c 0.42018,-1.8809 0.3291,-3.25 -0.21623,-3.25 -1.27355,0 -3.56733,14.63575 -2.54401,16.23247 0.49885,0.77837 1.04811,-0.855 1.42327,-4.23247 0.33602,-3.025 0.93765,-6.9625 1.33697,-8.75 z"
       style="fill:#5cb5e4;fill-opacity:1" />
    <path
       id="path3031"
       d="M 374.125 44.125 C 372.75128 44.257565 371.32903 45.02601 369.4375 46.46875 C 366.10125 49.01343 362 56.21416 362 59.5 C 362 62.10959 364.89234 65 367.5 65 C 368.70945 65 370.88843 63.91124 372.34375 62.5625 C 374.59874 60.47264 375 60.35045 375 61.84375 C 375 62.80749 375.5275 64.1525 376.1875 64.8125 C 377.61482 66.23982 378.99488 66.31115 380.96875 65.0625 C 382.20721 64.27907 382.21303 63.74355 381.0625 61.59375 C 380.12474 59.84154 379.88119 57.2516 380.3125 53.125 C 380.89052 47.5948 380.76971 47.08091 378.5 45.59375 C 376.82358 44.49532 375.49872 43.992435 374.125 44.125 z M 374.03125 50 C 374.56142 50 375 50.44192 375 51 C 375 52.34775 368.06605 59.77919 368.03125 58.46875 C 367.99094 56.9526 372.91687 50 374.03125 50 z "
       style="fill:#000000" />
    <path
       id="path3029"
       d="M 373.875 46.21875 C 373.14939 46.325702 372.37753 46.7836 371.21875 47.625 C 367.45104 50.36078 363.33179 58.72197 364.6875 60.875 C 366.30985 63.4515 368.49741 63.29594 371.96875 60.375 C 374.60012 58.16085 375.3316 57.93909 376.0625 59.09375 C 376.55485 59.87156 376.99158 61.2875 377 62.25 C 377.008 63.2125 377.73266 64 378.625 64 C 379.95058 64 380.01259 63.72009 379 62.5 C 378.18965 61.52359 377.91904 58.77854 378.1875 54.5625 C 378.56482 48.63673 378.40795 48.01318 376.28125 46.875 C 375.2988 46.34921 374.60061 46.111798 373.875 46.21875 z M 374.03125 50 C 374.56142 50 375 50.44192 375 51 C 375 52.34775 368.06605 59.77919 368.03125 58.46875 C 367.99094 56.9526 372.91687 50 374.03125 50 z "
       style="fill:#5cb5e4;fill-opacity:1" />
    <path
       id="path3027"
       d="M 375.0625 48.15625 C 374.39406 48.178073 373.54672 48.425287 372.53125 48.96875 C 369.7371 50.46413 365.61131 57.54108 366.375 59.53125 C 367.31993 61.99367 369.59849 61.18014 373.375 57 C 377.53622 52.394027 377.95906 48.061684 375.0625 48.15625 z M 374.03125 50 C 374.56142 50 375 50.44192 375 51 C 375 52.34775 368.06605 59.77919 368.03125 58.46875 C 367.99094 56.9526 372.91687 50 374.03125 50 z "
       style="fill:#000000" />
    <path
       inkscape:connector-curvature="0"
       id="path3023"
       d="m 384.32706,64.40993 c -0.92346,-2.40652 0.3872,-19.31441 1.8845,-24.31053 1.49655,-4.99362 4.02422,-7.26362 5.94703,-5.34081 0.95152,0.95152 0.84671,2.78248 -0.48529,8.47753 -0.93441,3.99513 -1.69317,10.21138 -1.68612,13.81388 0.0127,6.47116 -1.01725,8.95 -3.71856,8.95 -0.73227,0 -1.60596,-0.71553 -1.94156,-1.59007 z"
       style="fill:#000000" />
    <path
       inkscape:connector-curvature="0"
       id="path3021"
       d="m 388.01187,56.25 c 0.007,-4.2625 0.67619,-10.225 1.48813,-13.25 1.76045,-6.55878 1.85136,-7.75136 0.48687,-6.38687 C 387.23928,39.36072 384.55207,64 387,64 c 0.57962,0 1.00499,-3.25791 1.01187,-7.75 z"
       style="fill:#5cb5e4;fill-opacity:1" />
    <path
       inkscape:connector-curvature="0"
       id="path3009"
       d="m 357.93043,40.41618 c -1.77644,-2.14049 0.0104,-4.91618 3.16486,-4.91618 2.72109,0 3.74779,2.77923 1.86484,5.04804 -1.56829,1.88967 -3.39165,1.84187 -5.0297,-0.13186 z"
       style="fill:#000000" />
    <path
       inkscape:connector-curvature="0"
       id="path3007"
       d="M 361.77083,38.1875 C 361.98854,37.53437 361.45417,37 360.58333,37 359.7125,37 359,37.7125 359,38.58333 c 0,1.76593 2.15276,1.45839 2.77083,-0.39583 z"
       style="fill:#5cb5e4;fill-opacity:1" />
  </g>
  <path
     style="fill:#000000"
     d="m 79.654988,24.17126 c -4.144752,-4.5799 0.434315,-11.81849 5.900704,-9.32784 1.36057,0.61992 2.980969,2.24032 3.600887,3.60089 2.531736,5.55656 -5.354242,10.30972 -9.501591,5.72695 z"
     id="path3005"
     inkscape:connector-curvature="0" />
  <path
     style="fill:#5ad1df;fill-opacity:1"
     d="M 87.63349,21.51273 C 88.424347,19.45179 86.171936,16 84.036245,16 82.057751,16 79,18.47196 79,20.07143 c 0,0.51071 0.910313,1.83888 2.022918,2.95149 1.631406,1.6314 2.416493,1.81228 4.056487,0.93458 1.118463,-0.59858 2.267801,-1.69873 2.554085,-2.44477 z"
     id="path3003"
     inkscape:connector-curvature="0" />
  <path
     style="fill:#000000"
     d="M 48.556704,10.77749 C 47.700517,9.55512 47,7.82486 47,6.93248 c 0,-2.76477 3.510747,-5.10226 7.138405,-4.75281 4.073605,0.39239 5.930811,4.17824 4.061906,8.28004 -1.559532,3.4228 -7.335455,3.61313 -9.643607,0.31778 z"
     id="path3001"
     inkscape:connector-curvature="0" />
  <path
     style="fill:#5cb5e4;fill-opacity:1"
     d="M 55.065741,10.96482 C 56.163301,10.37742 57,8.87865 57,7.5 57,5.46499 54.610151,3 52.63717,3 51.592429,3 49,6.20742 49,7.5 c 0,1.29258 2.592429,4.5 3.63717,4.5 0.271872,0 1.364729,-0.46583 2.428571,-1.03518 z"
     id="path2995"
     inkscape:connector-curvature="0" />
</svg>
