<?xml version="1.0" encoding="UTF-8" standalone="no"?>
<!-- Created with Inkscape (http://www.inkscape.org/) -->

<svg
   xmlns:dc="http://purl.org/dc/elements/1.1/"
   xmlns:cc="http://creativecommons.org/ns#"
   xmlns:rdf="http://www.w3.org/1999/02/22-rdf-syntax-ns#"
   xmlns:svg="http://www.w3.org/2000/svg"
   xmlns="http://www.w3.org/2000/svg"
   xmlns:sodipodi="http://sodipodi.sourceforge.net/DTD/sodipodi-0.dtd"
   xmlns:inkscape="http://www.inkscape.org/namespaces/inkscape"
   id="svg2985"
   version="1.1"
   inkscape:version="0.48.4 r9939"
   width="250.11258"
   height="103.77037"
   sodipodi:docname="logo-with-title-divided-at-right.svg">
  <metadata
     id="metadata2991">
    <rdf:RDF>
      <cc:Work
         rdf:about="">
        <dc:format>image/svg+xml</dc:format>
        <dc:type
           rdf:resource="http://purl.org/dc/dcmitype/StillImage" />
        <dc:title></dc:title>
      </cc:Work>
    </rdf:RDF>
  </metadata>
  <defs
     id="defs2989" />
  <sodipodi:namedview
     pagecolor="#ffffff"
     bordercolor="#666666"
     borderopacity="1"
     objecttolerance="10"
     gridtolerance="10"
     guidetolerance="10"
     inkscape:pageopacity="0"
     inkscape:pageshadow="2"
     inkscape:window-width="1366"
     inkscape:window-height="717"
     id="namedview2987"
     showgrid="false"
     inkscape:zoom="2.1675132"
     inkscape:cx="129.1325"
     inkscape:cy="42.829478"
     inkscape:window-x="0"
     inkscape:window-y="26"
     inkscape:window-maximized="1"
     inkscape:current-layer="svg2985"
     fit-margin-top="3"
     fit-margin-left="3"
     fit-margin-right="5"
     fit-margin-bottom="3"
     showborder="true" />
  <g
     id="g3215"
     transform="matrix(0.86782657,0,0,0.86782657,4.2250202,-9.363405)">
    <path
       inkscape:connector-curvature="0"
       id="path3083"
       d="m 199.65499,65.17126 c -4.96159,-5.4825 2.49032,-21.99776 9.47772,-21.00495 2.93283,0.41671 5.61231,5.42768 4.14685,7.75514 -1.57428,2.50027 -4.02789,2.44235 -4.85403,-0.11458 -0.67865,-2.10048 -0.95155,-1.86085 -3.0502,2.67836 -2.81394,6.08633 -1.89289,7.60887 3.14858,5.20476 C 210.47308,58.76049 212.50259,58 213.03393,58 c 2.10148,0 0.79603,3.96529 -2.11066,6.41111 -3.67979,3.09634 -8.83909,3.44438 -11.26828,0.76015 z"
       style="fill:#000000" />
    <path
       inkscape:connector-curvature="0"
       id="path3081"
       d="m 209.69424,62.43646 2.80576,-2.56353 -2.69218,1.64066 c -1.48071,0.90237 -3.73071,1.49346 -5,1.31354 -3.36089,-0.4764 -3.68422,-6.23699 -0.60518,-10.78188 2.88484,-4.25823 4.56678,-4.84278 5.63392,-1.95803 0.45874,1.2401 1.08035,1.84028 1.38134,1.33375 C 212.06581,49.99408 210.22489,46 208.71932,46 c -3.5299,0 -10.17649,11.15783 -8.93533,15 1.5192,4.70286 5.67579,5.30535 9.91025,1.43646 z"
       style="fill:#5cb5e4;fill-opacity:1" />
    <path
       id="path3071"
       d="m 172.5,44.15625 c -1.10839,0.03111 -2.27795,0.33545 -3.40625,0.96875 -6.7037,3.76269 -9.76693,15.88606 -4.875,19.3125 2.99438,2.09734 6.61305,1.96372 10.5,-0.40625 3.02841,-1.84649 5.27567,-6.34933 3.875,-7.75 -0.34721,-0.34721 -2.41926,0.38531 -4.625,1.625 -2.20573,1.23969 -4.52007,2.08706 -5.15625,1.875 -0.63618,-0.21206 0.58944,-1.32008 2.75,-2.4375 4.76846,-2.4662 6.98105,-5.99648 6.0625,-9.65625 -0.58125,-2.315892 -2.68654,-3.599682 -5.125,-3.53125 z m -0.25,4.90625 c 0.11939,0.02385 0.2228,0.06655 0.3125,0.15625 0.23624,0.23623 -0.74002,1.54367 -2.1875,2.875 -2.50913,2.30781 -2.58792,2.3108 -1.5,0.21875 1.05597,-2.030604 2.53928,-3.416987 3.375,-3.25 z"
       style="fill:#000000"
       inkscape:connector-curvature="0" />
    <path
       id="path3069"
       d="m 173.46875,46.03125 c -2.98077,-0.08904 -7.77901,3.8089 -9.21875,8.5 -1.12812,3.67575 -0.85302,5.80972 1.09375,8.3125 1.34955,1.73499 7.21514,0.85355 9.78125,-1.46875 2.57961,-2.33452 1.62591,-2.9027 -1.46875,-0.875 -3.26515,2.1394 -7.08099,1.62641 -7.4375,-1 -0.20368,-1.50053 0.74437,-2.40394 3.75,-3.65625 4.16101,-1.73372 6.74794,-5.51779 5.6875,-8.28125 -0.39526,-1.030048 -1.19391,-1.501569 -2.1875,-1.53125 z M 172.25,49.0625 c 0.11939,0.02385 0.2228,0.06655 0.3125,0.15625 0.23624,0.23623 -0.74002,1.54367 -2.1875,2.875 -2.50913,2.30781 -2.58792,2.3108 -1.5,0.21875 1.05597,-2.030604 2.53928,-3.416987 3.375,-3.25 z"
       style="fill:#5cb5e4;fill-opacity:1"
       inkscape:connector-curvature="0" />
    <path
       id="path3067"
       d="m 172.8125,47.21875 c -3.05684,0.132867 -7.77857,5.389791 -6.28125,7.8125 1.00698,1.62933 2.47463,1.08788 5.53125,-1.96875 3.07692,-3.07692 3.60585,-4.5314 1.9375,-5.5625 -0.34543,-0.213485 -0.75081,-0.300231 -1.1875,-0.28125 z M 172.25,49.0625 c 0.11939,0.02385 0.2228,0.06655 0.3125,0.15625 0.23624,0.23623 -0.74002,1.54367 -2.1875,2.875 -2.50913,2.30781 -2.58792,2.3108 -1.5,0.21875 1.05597,-2.030604 2.53928,-3.416987 3.375,-3.25 z"
       style="fill:#000000"
       inkscape:connector-curvature="0" />
    <path
       inkscape:connector-curvature="0"
       id="path3063"
       d="m 181.70885,65.37552 c -1.29365,-1.29365 -0.78994,-16.88236 0.60725,-18.79313 1.80948,-2.47462 5.20729,-1.65863 5.10167,1.22518 l -0.0822,2.24515 2.63696,-2.52636 C 194.24157,43.43632 199,44.6435 199,49.81658 c 0,2.05332 -0.38467,2.34304 -2.55902,1.92739 -2.01288,-0.38479 -3.12668,0.22224 -5.21894,2.8444 -1.46297,1.83347 -3.13655,5.03864 -3.71908,7.12261 -1.01849,3.64356 -3.95675,5.50189 -5.79411,3.66454 z"
       style="fill:#000000" />
    <path
       inkscape:connector-curvature="0"
       id="path3061"
       d="m 185.88682,59.98342 c 1.57465,-5.2557 6.83311,-11.28992 9.28071,-10.64986 2.2975,0.60081 2.42962,-1.16718 0.15252,-2.04099 -1.1813,-0.4533 -2.81013,0.62889 -5.48746,3.64586 -3.03225,3.41692 -3.93382,3.96134 -4.42789,2.67381 -0.34122,-0.88919 -0.33829,-2.74071 0.007,-4.11448 0.6829,-2.72092 -0.819,-3.48341 -1.80422,-0.91597 C 182.68417,50.98662 182.88228,64 183.84171,64 c 0.46294,0 1.38324,-1.80746 2.04511,-4.01658 z"
       style="fill:#5cb5e4;fill-opacity:1" />
    <path
       id="path3059"
       d="m 227.125,44.125 c -1.37372,0.132565 -2.79597,0.90101 -4.6875,2.34375 C 219.10125,49.01343 215,56.21416 215,59.5 c 0,2.60959 2.89234,5.5 5.5,5.5 1.20945,0 3.38843,-1.08876 4.84375,-2.4375 C 227.59874,60.47264 228,60.35045 228,61.84375 c 0,0.96374 0.5275,2.30875 1.1875,2.96875 1.42732,1.42732 2.80738,1.49865 4.78125,0.25 1.23846,-0.78343 1.24428,-1.31895 0.0937,-3.46875 -0.93776,-1.75221 -1.18131,-4.34215 -0.75,-8.46875 0.57802,-5.5302 0.45721,-6.04409 -1.8125,-7.53125 -1.67641,-1.09843 -3.00128,-1.601315 -4.375,-1.46875 z M 227.03125,50 C 227.56142,50 228,50.44192 228,51 c 0,1.34775 -6.93395,8.77919 -6.96875,7.46875 -0.0403,-1.51615 4.88562,-8.46875 6,-8.46875 z"
       style="fill:#000000"
       inkscape:connector-curvature="0" />
    <path
       id="path3057"
       d="m 226.875,46.21875 c -0.72561,0.106952 -1.49747,0.56485 -2.65625,1.40625 -3.76771,2.73578 -7.88696,11.09697 -6.53125,13.25 1.62235,2.5765 3.80991,2.42094 7.28125,-0.5 2.63137,-2.21415 3.36285,-2.43591 4.09375,-1.28125 0.49235,0.77781 0.92908,2.19375 0.9375,3.15625 0.008,0.9625 0.73266,1.75 1.625,1.75 1.32558,0 1.38759,-0.27991 0.375,-1.5 -0.81035,-0.97641 -1.08096,-3.72146 -0.8125,-7.9375 0.37732,-5.92577 0.22045,-6.54932 -1.90625,-7.6875 -0.98245,-0.52579 -1.68064,-0.763202 -2.40625,-0.65625 z M 227.03125,50 C 227.56142,50 228,50.44192 228,51 c 0,1.34775 -6.93395,8.77919 -6.96875,7.46875 -0.0403,-1.51615 4.88562,-8.46875 6,-8.46875 z"
       style="fill:#5cb5e4;fill-opacity:1"
       inkscape:connector-curvature="0" />
    <path
       id="path3055"
       d="m 228.0625,48.15625 c -0.66844,0.02182 -1.51578,0.269037 -2.53125,0.8125 -2.79415,1.49538 -6.91994,8.57233 -6.15625,10.5625 0.94493,2.46242 3.22349,1.64889 7,-2.53125 4.16122,-4.605973 4.58406,-8.938316 1.6875,-8.84375 z M 227.03125,50 C 227.56142,50 228,50.44192 228,51 c 0,1.34775 -6.93395,8.77919 -6.96875,7.46875 -0.0403,-1.51615 4.88562,-8.46875 6,-8.46875 z"
       style="fill:#000000;fill-opacity:1"
       inkscape:connector-curvature="0" />
    <path
       id="path3051"
       d="M 270.4375,43.9375 C 265.15845,43.899253 259,49.921638 259,58.46875 c 0,2.19879 0.75498,4.28623 2,5.53125 2.94162,2.94162 7.31885,2.52629 11.40625,-1.0625 4.52452,-3.97254 6.15141,-8.71773 4.59375,-13.4375 -1.26874,-3.844321 -3.79729,-5.542466 -6.5625,-5.5625 z m -1,6.0625 c 3.38446,0 2.36623,6.9687 -1.3125,8.9375 C 265.27929,60.46048 265,60.31071 265,57.21875 265,54.02766 267.4715,50 269.4375,50 z"
       style="fill:#000000"
       inkscape:connector-curvature="0" />
    <path
       id="path3049"
       d="m 269.875,46.28125 c -2.74163,0.08696 -5.80837,2.276162 -7.46875,6.25 -3.78465,9.05795 1.17032,14.75847 8.09375,9.3125 3.972,-3.12438 5.72863,-7.86696 4.375,-11.75 -0.92456,-2.652186 -2.86762,-3.880137 -5,-3.8125 z M 269.4375,50 c 3.38446,0 2.36623,6.9687 -1.3125,8.9375 C 265.27929,60.46048 265,60.31071 265,57.21875 265,54.02766 267.4715,50 269.4375,50 z"
       style="fill:#5cb5e4;fill-opacity:1"
       inkscape:connector-curvature="0" />
    <path
       id="path3047"
       d="m 269.5,48.34375 c -1.83382,0.14794 -3.78593,1.337684 -4.96875,3.625 -1.56236,3.02127 -2.05546,8.19454 -0.875,9.375 C 266.5161,64.20361 274,57.98793 274,52.75 c 0,-3.065287 -2.14223,-4.596459 -4.5,-4.40625 z M 269.4375,50 c 3.38446,0 2.36623,6.9687 -1.3125,8.9375 C 265.27929,60.46048 265,60.31071 265,57.21875 265,54.02766 267.4715,50 269.4375,50 z"
       style="fill:#000000;fill-opacity:1"
       inkscape:connector-curvature="0" />
    <path
       transform="translate(0,-120)"
       d="m 136.3125,159.125 c -0.30218,0.004 -0.63982,0.12859 -1.125,0.53125 -0.5161,0.42833 -1.25,2.02357 -1.25,3.0625 0,0.90371 -0.26169,2.40448 -0.65625,4.375 -0.39456,1.97052 -0.93155,4.3385 -1.53125,6.625 -0.58701,2.23816 -1.04131,4.43959 -1.3125,6.1875 -0.1356,0.87396 -0.24955,1.62107 -0.28125,2.1875 -0.0317,0.56643 0.0728,1.01449 0.0313,0.90625 0.14945,0.38946 1.09499,1.0625 1.8125,1.0625 0.29577,0 0.60152,-0.16432 1,-0.6875 0.39848,-0.52318 0.80714,-1.36326 1.15625,-2.375 0.69822,-2.02347 1.20186,-4.68487 1.59375,-6.96875 0.19961,-1.16328 0.26897,-1.86169 0.625,-2.5 0.089,-0.15958 0.20932,-0.31347 0.4375,-0.46875 0.22818,-0.15528 0.59382,-0.24617 0.875,-0.1875 0.56236,0.11734 0.73147,0.42156 0.9375,0.6875 0.82414,1.06376 1.7382,3.10718 3.71875,6.3125 0.20028,0.32413 0.27335,0.34559 0.5,0.34375 0.22665,-0.002 0.69077,-0.16099 1.28125,-0.5625 1.18095,-0.80301 2.77098,-2.49525 4.46875,-4.71875 l 3.25,-4.25 a 0.93326602,0.93326602 0 0 1 1.6875,0.5625 l -0.0625,7.625 c -0.0218,3.73651 0.0443,5.68028 0.25,6.3125 0.10287,0.31611 0.0774,0.27138 0.1875,0.3125 0.11011,0.0411 0.49008,0.0625 1.09375,0.0625 0.59132,0 0.95081,-0.044 1.0625,-0.0937 0.11169,-0.0497 0.15607,-0.0584 0.3125,-0.5 0.31287,-0.88315 0.54242,-3.16142 0.875,-7.53125 0.37811,-4.96802 0.96268,-10.35407 1.3125,-12.21875 0.30184,-1.60894 -0.0275,-2.78075 -0.5625,-3.40625 -0.53497,-0.6255 -1.28497,-0.88564 -2.5,-0.5 0.008,-0.002 -0.3448,0.19134 -0.75,0.53125 -0.4052,0.33991 -0.9225,0.83035 -1.46875,1.40625 -1.0925,1.1518 -2.36411,2.70142 -3.53125,4.3125 -1.20744,1.66671 -2.35665,3.10106 -3.28125,4.125 -0.4623,0.51197 -0.86561,0.92636 -1.21875,1.21875 -0.17657,0.14619 -0.3366,0.26898 -0.5625,0.375 -0.11295,0.053 -0.25316,0.11193 -0.46875,0.125 -0.21559,0.0131 -0.5514,-0.0827 -0.78125,-0.3125 -0.32627,-0.32626 -0.34995,-0.49537 -0.53125,-0.84375 -0.1813,-0.34838 -0.41732,-0.79059 -0.65625,-1.3125 -0.47785,-1.04381 -1.0565,-2.39826 -1.625,-3.8125 -0.88088,-2.19133 -1.70463,-3.77698 -2.46875,-4.75 -0.76412,-0.97302 -1.38055,-1.25671 -1.84375,-1.25 z"
       id="path3917"
       style="fill:#5cb5e4;fill-opacity:1"
       inkscape:original="M 136.3125 158.1875 C 135.74123 158.1955 135.18053 158.45052 134.59375 158.9375 C 133.72265 159.66045 133 161.3511 133 162.71875 C 133 164.0864 132.03323 168.93356 130.84375 173.46875 C 129.65428 178.00394 128.96529 182.43894 129.3125 183.34375 C 129.65971 184.24857 130.86912 185 132 185 C 134.64638 185 135.86902 178.77532 136.65625 174.1875 C 137.44347 169.59968 137.55386 171.88743 141.5625 178.375 C 142.87116 180.49293 145.88849 178.02522 149.34375 173.5 L 152.59375 169.25 L 152.53125 176.875 C 152.48765 184.35312 152.54805 184.5 155 184.5 C 157.43063 184.5 157.52196 184.24473 158.1875 175.5 C 158.564 170.55313 159.14711 165.12071 159.46875 163.40625 C 160.146 159.7962 158.1804 157.49751 155.21875 158.4375 C 154.1813 158.76677 151.38273 161.71097 149 165 C 146.61726 168.28904 144.39841 170.74216 144.09375 170.4375 C 143.78908 170.13284 142.62718 167.5853 141.5 164.78125 C 139.70193 160.30826 138.02631 158.16268 136.3125 158.1875 z "
       inkscape:radius="-0.9331727"
       sodipodi:type="inkscape:offset" />
    <path
       sodipodi:nodetypes="sssssscsssssscsscszsssssssssssssscz"
       inkscape:connector-curvature="0"
       id="path3019"
       d="m 131.99337,65 c -1.13088,0 -2.34022,-0.7403 -2.68743,-1.64512 -0.34721,-0.90481 0.34191,-5.35573 1.53138,-9.89092 C 132.0268,48.92877 133,44.09917 133,42.73152 c 0,-1.36765 0.71272,-3.07814 1.58382,-3.80109 2.34711,-1.94792 4.52041,-0.1083 6.91783,5.85569 1.12718,2.80405 2.29868,5.34755 2.60335,5.65221 0.30466,0.30466 2.50343,-2.1371 4.88617,-5.42614 2.38273,-3.28903 5.18107,-6.24947 6.21852,-6.57874 2.96165,-0.93999 4.92144,1.35067 4.24419,4.96072 -0.32164,1.71446 -0.89284,7.16464 -1.26934,12.11151 C 157.519,64.25041 157.43063,64.5 155,64.5 c -2.45196,0 -2.49915,-0.1465 -2.45553,-7.62462 l 0.0445,-7.62462 -3.24371,4.24815 c -3.45526,4.52522 -6.48819,6.99921 -7.79685,4.88128 -4.00864,-6.48757 -4.10584,-8.78256 -4.89306,-4.19474 C 135.86812,58.77327 134.63975,65 131.99337,65 z m 7.09681,-14.80708 c 1.77809,3.7509 3.45813,6.80708 3.93178,6.80708 0.47365,0 2.93879,-2.7 5.47808,-6 2.53929,-3.3 5.05676,-6 5.59438,-6 0.61456,0 0.72523,3.3415 0.29807,9 -0.43507,5.76332 -0.32126,9 0.31647,9 0.54773,0 1.30334,-4.1625 1.67913,-9.25 0.37579,-5.0875 0.77971,-10.10157 0.8976,-11.14237 C 157.7423,38.57613 155.03481,40.20842 150,47 c -2.88798,3.89567 -5.75693,6.91925 -6.37544,6.71907 -0.61851,-0.20018 -2.19648,-3.38656 -3.5066,-7.08084 -1.3136,-3.70408 -2.88329,-6.54979 -3.49954,-6.34437 -0.61463,0.20488 -1.4127,2.43619 -1.7735,4.95847 -0.3608,2.52228 -1.3735,7.0541 -2.25046,10.07072 C 130.75667,61.64485 130.63922,63 131.9291,63 c 0.51101,0 1.43951,-2.5875 2.06334,-5.75 1.86614,-7.92391 3.31966,-10.80799 5.09774,-7.05708 z"
       style="fill:#000000" />
    <path
       id="path3017"
       d="m 255.1875,34.15625 c -0.1785,0.0043 -0.36172,0.0025 -0.5625,0.03125 -1.62568,0.23254 -2.42507,1.53161 -3.5,5.5625 -1.29618,4.86054 -1.65064,5.25 -4.4375,5.25 -2.21015,0 -3.99225,1.06815 -6.78125,4 -4.58353,4.8183 -5.89898,9.83869 -3.5,13.5 2.00148,3.05463 5.38861,3.23572 8.90625,0.46875 l 2.59375,-2.03125 1.0625,2.03125 c 2.04961,3.82973 9.03125,1.31621 9.03125,-3.25 0,-1.46933 -0.50196,-1.82925 -2,-1.4375 -1.73217,0.45297 -2,0.0279 -2,-3.15625 0,-2.02206 0.90611,-6.89634 2,-10.84375 2.0646,-7.450378 1.86496,-10.18911 -0.8125,-10.125 z m -7.84375,15.8125 c 1.22016,-0.157189 0.83527,2.093181 -1.90625,5.6875 -1.40299,1.83941 -2.97799,3.34375 -3.5,3.34375 -1.75201,0 -0.9548,-2.83443 1.65625,-5.9375 1.72326,-2.047973 3.0179,-2.999437 3.75,-3.09375 z"
       style="fill:#000000"
       inkscape:connector-curvature="0" />
    <path
       id="path3015"
       d="m 254.84375,36.4375 c -0.46397,0.03614 -1.30136,2.219906 -1.9375,5.0625 -1.18183,5.28096 -1.36638,5.5 -4.4375,5.5 -6.18401,0 -12.87721,8.61334 -10.59375,13.625 1.34962,2.96208 3.07236,2.99991 6.6875,0.15625 3.80066,-2.9896 5.15947,-3.03843 5.875,-0.1875 0.33121,1.31962 1.24918,2.40625 2.03125,2.40625 2.05374,0 2.78975,-1.7002 1.03125,-2.375 -2.11008,-0.80971 -1.93903,-8.56112 0.375,-16.90625 1.02927,-3.71185 1.50073,-6.97915 1.0625,-7.25 -0.0274,-0.01693 -0.0628,-0.03366 -0.0937,-0.03125 z m -7.5,13.53125 c 1.22016,-0.157189 0.83527,2.093181 -1.90625,5.6875 -1.40299,1.83941 -2.97799,3.34375 -3.5,3.34375 -1.75201,0 -0.9548,-2.83443 1.65625,-5.9375 1.72326,-2.047973 3.0179,-2.999437 3.75,-3.09375 z"
       style="fill:#5cb5e4;fill-opacity:1"
       inkscape:connector-curvature="0" />
    <path
       id="path3013"
       d="m 247.125,48 c -3.75574,0 -9.49893,8.95599 -7.65625,11.9375 1.17101,1.89474 3.65609,1.11573 6.625,-2.0625 C 250.65241,52.99495 251.18049,48 247.125,48 z m 0.21875,1.96875 c 1.22016,-0.157189 0.83527,2.093181 -1.90625,5.6875 -1.40299,1.83941 -2.97799,3.34375 -3.5,3.34375 -1.75201,0 -0.9548,-2.83443 1.65625,-5.9375 1.72326,-2.047973 3.0179,-2.999437 3.75,-3.09375 z"
       style="fill:#000000;fill-opacity:1"
       inkscape:connector-curvature="0" />
  </g>
  <g
     id="g3235"
     transform="matrix(0.86782657,0,0,0.86782657,-116.57203,25.267365)">
    <path
       inkscape:connector-curvature="0"
       id="path3079"
       d="m 292.96579,64.93608 c -1.66434,-3.10985 0.44803,-5.13668 4.55122,-4.36691 3.45179,0.64756 10.00004,-1.92354 9.00392,-3.5353 -0.29945,-0.48452 -2.79345,-1.62795 -5.54221,-2.54094 -7.18467,-2.38636 -9.32911,-7.94256 -4.72872,-12.252 6.23907,-5.8445 17.75,-5.63332 17.75,0.32564 0,3.13017 -2.50759,4.18903 -4.86599,2.05471 -2.12985,-1.92749 -3.20307,-2.00257 -6.58696,-0.46077 -3.80468,1.73353 -3.0996,3.47025 2.20295,5.42625 6.19808,2.28634 8.25,4.12534 8.25,7.39391 0,6.94916 -16.96697,13.68659 -20.03421,7.95541 z"
       style="fill:#000000" />
    <path
       inkscape:connector-curvature="0"
       id="path3077"
       d="m 304.97476,62.75 c 8.17553,-4.18206 7.98115,-7.88953 -0.58017,-11.06603 -6.10405,-2.26478 -6.79678,-2.94536 -6.04535,-5.93932 1.07506,-4.28337 8.39041,-6.19523 11.82202,-3.08966 C 311.77593,44.1072 312,44.1203 312,42.76198 c 0,-3.44233 -7.27358,-3.7261 -12.10212,-0.47215 -2.57906,1.73803 -3.39788,3.00105 -3.39788,5.24116 0,2.63189 0.57434,3.18028 5.30656,5.06673 6.27436,2.50121 7.67492,3.70519 6.84028,5.88021 -0.84609,2.20487 -7.37651,4.78874 -10.8241,4.28275 C 295.9359,62.48375 295,62.7863 295,63.67319 c 0,2.05987 5.05838,1.5917 9.97476,-0.92319 z"
       style="fill:#5cb5e4;fill-opacity:1" />
    <path
       inkscape:connector-curvature="0"
       id="path3075"
       d="m 336.65499,65.17126 c -4.96159,-5.4825 2.49032,-21.99776 9.47772,-21.00495 2.93283,0.41671 5.61231,5.42768 4.14685,7.75514 -1.57428,2.50027 -4.02789,2.44235 -4.85403,-0.11458 -0.67865,-2.10048 -0.95155,-1.86085 -3.0502,2.67836 -2.81394,6.08633 -1.89289,7.60887 3.14858,5.20476 C 347.47308,58.76049 349.50259,58 350.03393,58 c 2.10148,0 0.79603,3.96529 -2.11066,6.41111 -3.67979,3.09634 -8.83909,3.44438 -11.26828,0.76015 z"
       style="fill:#000000" />
    <path
       inkscape:connector-curvature="0"
       id="path3073"
       d="m 346.69424,62.43646 2.80576,-2.56353 -2.69218,1.64066 c -1.48071,0.90237 -3.73071,1.49346 -5,1.31354 -3.36089,-0.4764 -3.68422,-6.23699 -0.60518,-10.78188 2.88484,-4.25823 4.56678,-4.84278 5.63392,-1.95803 0.45874,1.2401 1.08035,1.84028 1.38134,1.33375 C 349.06581,49.99408 347.22489,46 345.71932,46 c -3.5299,0 -10.17649,11.15783 -8.93533,15 1.5192,4.70286 5.67579,5.30535 9.91025,1.43646 z"
       style="fill:#5cb5e4;fill-opacity:1" />
    <path
       id="path3043"
       d="M 326.4375,43.9375 C 321.15845,43.899253 315,49.921638 315,58.46875 c 0,2.19879 0.75498,4.28623 2,5.53125 2.94162,2.94162 7.31885,2.52629 11.40625,-1.0625 4.52452,-3.97254 6.15141,-8.71773 4.59375,-13.4375 -1.26874,-3.844321 -3.79729,-5.542466 -6.5625,-5.5625 z m -1,6.0625 c 3.38446,0 2.36623,6.9687 -1.3125,8.9375 C 321.27929,60.46048 321,60.31071 321,57.21875 321,54.02766 323.4715,50 325.4375,50 z"
       style="fill:#000000"
       inkscape:connector-curvature="0" />
    <path
       id="path3041"
       d="m 325.875,46.28125 c -2.74163,0.08696 -5.80837,2.276162 -7.46875,6.25 -3.78465,9.05795 1.17032,14.75847 8.09375,9.3125 3.972,-3.12438 5.72863,-7.86696 4.375,-11.75 -0.92456,-2.652186 -2.86762,-3.880137 -5,-3.8125 z M 325.4375,50 c 3.38446,0 2.36623,6.9687 -1.3125,8.9375 C 321.27929,60.46048 321,60.31071 321,57.21875 321,54.02766 323.4715,50 325.4375,50 z"
       style="fill:#5cb5e4;fill-opacity:1"
       inkscape:connector-curvature="0" />
    <path
       id="path3039"
       d="m 325.5,48.34375 c -1.83382,0.14794 -3.78593,1.337684 -4.96875,3.625 -1.56236,3.02127 -2.05546,8.19454 -0.875,9.375 C 322.5161,64.20361 330,57.98793 330,52.75 c 0,-3.065287 -2.14223,-4.596459 -4.5,-4.40625 z M 325.4375,50 c 3.38446,0 2.36623,6.9687 -1.3125,8.9375 C 321.27929,60.46048 321,60.31071 321,57.21875 321,54.02766 323.4715,50 325.4375,50 z"
       style="fill:#000000"
       inkscape:connector-curvature="0" />
    <path
       inkscape:connector-curvature="0"
       id="path3035"
       d="m 353.97648,64.47165 c -1.12068,-1.35033 -1.10565,-3.03245 0.092,-10.29288 C 355.4225,45.96983 355.63534,45.5 358,45.5 c 2.80484,0 2.89111,0.88644 1.31263,13.48704 -0.85947,6.86092 -2.65894,8.71046 -5.33615,5.48462 z"
       style="fill:#000000" />
    <path
       inkscape:connector-curvature="0"
       id="path3033"
       d="m 358.43288,50.25 c 0.42018,-1.8809 0.3291,-3.25 -0.21623,-3.25 -1.27355,0 -3.56733,14.63575 -2.54401,16.23247 0.49885,0.77837 1.04811,-0.855 1.42327,-4.23247 0.33602,-3.025 0.93765,-6.9625 1.33697,-8.75 z"
       style="fill:#5cb5e4;fill-opacity:1" />
    <path
       id="path3031"
       d="m 374.125,44.125 c -1.37372,0.132565 -2.79597,0.90101 -4.6875,2.34375 C 366.10125,49.01343 362,56.21416 362,59.5 c 0,2.60959 2.89234,5.5 5.5,5.5 1.20945,0 3.38843,-1.08876 4.84375,-2.4375 C 374.59874,60.47264 375,60.35045 375,61.84375 c 0,0.96374 0.5275,2.30875 1.1875,2.96875 1.42732,1.42732 2.80738,1.49865 4.78125,0.25 1.23846,-0.78343 1.24428,-1.31895 0.0937,-3.46875 -0.93776,-1.75221 -1.18131,-4.34215 -0.75,-8.46875 0.57802,-5.5302 0.45721,-6.04409 -1.8125,-7.53125 -1.67642,-1.09843 -3.00128,-1.601315 -4.375,-1.46875 z M 374.03125,50 C 374.56142,50 375,50.44192 375,51 c 0,1.34775 -6.93395,8.77919 -6.96875,7.46875 -0.0403,-1.51615 4.88562,-8.46875 6,-8.46875 z"
       style="fill:#000000"
       inkscape:connector-curvature="0" />
    <path
       id="path3029"
       d="m 373.875,46.21875 c -0.72561,0.106952 -1.49747,0.56485 -2.65625,1.40625 -3.76771,2.73578 -7.88696,11.09697 -6.53125,13.25 1.62235,2.5765 3.80991,2.42094 7.28125,-0.5 2.63137,-2.21415 3.36285,-2.43591 4.09375,-1.28125 0.49235,0.77781 0.92908,2.19375 0.9375,3.15625 0.008,0.9625 0.73266,1.75 1.625,1.75 1.32558,0 1.38759,-0.27991 0.375,-1.5 -0.81035,-0.97641 -1.08096,-3.72146 -0.8125,-7.9375 0.37732,-5.92577 0.22045,-6.54932 -1.90625,-7.6875 -0.98245,-0.52579 -1.68064,-0.763202 -2.40625,-0.65625 z M 374.03125,50 C 374.56142,50 375,50.44192 375,51 c 0,1.34775 -6.93395,8.77919 -6.96875,7.46875 -0.0403,-1.51615 4.88562,-8.46875 6,-8.46875 z"
       style="fill:#5cb5e4;fill-opacity:1"
       inkscape:connector-curvature="0" />
    <path
       id="path3027"
       d="m 375.0625,48.15625 c -0.66844,0.02182 -1.51578,0.269037 -2.53125,0.8125 -2.79415,1.49538 -6.91994,8.57233 -6.15625,10.5625 0.94493,2.46242 3.22349,1.64889 7,-2.53125 4.16122,-4.605973 4.58406,-8.938316 1.6875,-8.84375 z M 374.03125,50 C 374.56142,50 375,50.44192 375,51 c 0,1.34775 -6.93395,8.77919 -6.96875,7.46875 -0.0403,-1.51615 4.88562,-8.46875 6,-8.46875 z"
       style="fill:#000000"
       inkscape:connector-curvature="0" />
    <path
       inkscape:connector-curvature="0"
       id="path3023"
       d="m 384.32706,64.40993 c -0.92346,-2.40652 0.3872,-19.31441 1.8845,-24.31053 1.49655,-4.99362 4.02422,-7.26362 5.94703,-5.34081 0.95152,0.95152 0.84671,2.78248 -0.48529,8.47753 -0.93441,3.99513 -1.69317,10.21138 -1.68612,13.81388 0.0127,6.47116 -1.01725,8.95 -3.71856,8.95 -0.73227,0 -1.60596,-0.71553 -1.94156,-1.59007 z"
       style="fill:#000000" />
    <path
       inkscape:connector-curvature="0"
       id="path3021"
       d="m 388.01187,56.25 c 0.007,-4.2625 0.67619,-10.225 1.48813,-13.25 1.76045,-6.55878 1.85136,-7.75136 0.48687,-6.38687 C 387.23928,39.36072 384.55207,64 387,64 c 0.57962,0 1.00499,-3.25791 1.01187,-7.75 z"
       style="fill:#5cb5e4;fill-opacity:1" />
    <path
       inkscape:connector-curvature="0"
       id="path3009"
       d="m 357.93043,40.41618 c -1.77644,-2.14049 0.0104,-4.91618 3.16486,-4.91618 2.72109,0 3.74779,2.77923 1.86484,5.04804 -1.56829,1.88967 -3.39165,1.84187 -5.0297,-0.13186 z"
       style="fill:#000000" />
    <path
       inkscape:connector-curvature="0"
       id="path3007"
       d="M 361.77083,38.1875 C 361.98854,37.53437 361.45417,37 360.58333,37 359.7125,37 359,37.7125 359,38.58333 c 0,1.76593 2.15276,1.45839 2.77083,-0.39583 z"
       style="fill:#5cb5e4;fill-opacity:1" />
  </g>
  <g
     id="g3331">
    <path
       inkscape:connector-curvature="0"
       id="path3113"
       d="m 48.238164,99.298364 c -2.544651,-1.78235 -3.019638,-6.61981 -0.849083,-8.64742 1.147699,-1.07211 0.902851,-1.48082 -1.489778,-2.48685 -2.183313,-0.91801 -3.147582,-2.26716 -4.060815,-5.68163 l -1.197615,-4.47775 -2.447466,1.92517 c -2.743982,2.15842 -8.151495,2.55143 -9.977749,0.72518 -0.933333,-0.93333 -1.2,-0.61587 -1.2,1.42857 0,3.28856 -2.39683,5.77143 -5.571429,5.77143 -2.840449,0 -6.428571,-3.22472 -6.428571,-5.77749 0,-2.88857 2.930672,-6.22251 5.46984,-6.22251 2.202574,0 2.282589,-0.19563 1.225474,-2.99625 -0.927787,-2.45799 -0.82236,-3.51867 0.586864,-5.90429 2.34698,-3.97312 2.179098,-4.75721 -1.161642,-5.42535 -3.615465,-0.7231 -6.115963,-3.16641 -6.135849,-5.99554 -0.0089,-1.26304 -0.324061,-1.71618 -0.75,-1.07827 -1.728129,2.58811 -5.1840954,3.53287 -8.0037931,2.18801 -3.7867318,-1.8061 -4.4164921,-7.84448 -1.0630887,-10.19329 3.0090582,-2.10763 5.4131668,-2.01405 7.7280278,0.30081 1.861111,1.86111 1.906502,1.8425 2.4783,-1.0165 0.636431,-3.18215 3.528963,-4.79821 8.940967,-4.99533 1.751695,-0.0638 2.441875,-0.31323 1.533732,-0.55429 -2.331117,-0.61878 -4.204966,-5.74769 -3.557535,-9.73734 0.50202,-3.09358 0.306735,-3.42276 -2.345173,-3.95315 -5.100414,-1.02008 -5.385125,-9.98897 -0.357153,-11.25091 6.303128,-1.58198 10.100749,3.74159 6.403026,8.97588 l -2.215265,3.13581 3.16232,-3.25 c 3.847384,-3.95406 7.726505,-4.24285 11.734223,-0.87359 l 2.826725,2.37641 0.219913,-3.00602 c 0.120951,-1.65331 0.918825,-4.07269 1.773052,-5.37641 1.38281,-2.11043 2.301297,-2.37039 8.3751,-2.37039 7.598158,0 9.406795,1.13209 10.570803,6.61663 l 0.661455,3.11662 3.661281,-1.86662 c 2.013704,-1.02665 4.404552,-1.86663 5.312996,-1.86663 1.778527,0 10.9254,9.20682 10.9254,10.997 0,0.59547 -0.876413,2.80059 -1.947583,4.90025 l -1.947584,3.81758 3.931267,1.17784 c 4.141223,1.24074 5.954198,3.45186 5.978642,7.29159 l 0.01474,2.31574 1.258429,-2.5 c 2.506734,-4.97989 10.712091,-2.94619 10.712091,2.65499 0,2.78422 -3.25991,6.34501 -5.808874,6.34501 -2.1397,0 -4.745146,-1.89585 -5.497149,-4 -0.338753,-0.94785 -0.565147,-0.64758 -0.615034,0.81574 -0.129197,3.78971 -1.862279,5.97879 -5.32063,6.72058 -4.723359,1.01311 -5.035388,1.39187 -3.312654,4.0211 1.868847,2.85222 2.037348,8.556 0.304337,10.30183 -1.002273,1.00968 -0.901652,1.12662 0.50772,0.59004 3.065662,-1.16715 6.74228,2.12573 6.74228,6.03858 0,3.78232 -2.011954,5.51213 -6.411206,5.51213 -3.020319,0 -6.145531,-4.09983 -5.1395,-6.74228 0.536575,-1.40937 0.419638,-1.50999 -0.590048,-0.50772 -1.562788,1.55131 -6.267807,1.61962 -9.174987,0.13321 -3.121865,-1.59618 -10.684259,-9.06616 -10.684259,-10.55369 0,-0.86098 1.71954,-1.23352 5.485951,-1.18854 4.291789,0.0513 6.522972,-0.54585 10.25,-2.74314 l 4.764049,-2.80867 -4.25,-0.85343 c -2.3375,-0.46939 -4.25,-1.2907 -4.25,-1.82514 0,-0.53444 1.547525,-2.33045 3.438944,-3.99114 3.247092,-2.85098 4.489355,-5.40211 6.047601,-12.41946 l 0.66617,-3 -2.881077,2.75 c -1.584591,1.5125 -3.64927,2.75 -4.588174,2.75 -1.432582,0 -1.603868,-0.64557 -1.065152,-4.01452 0.533327,-3.33524 0.07001,-5.15419 -2.738182,-10.75 l -3.38013,-6.73548 -0.30226,5.25 c -0.357167,6.2037 -1.596495,6.63012 -5.403277,1.85912 -1.68485,-2.1116 -4.48718,-3.99788 -7.428139,-4.99997 -7.033627,-2.3966 -7.964843,-2.10916 -4.913848,1.51674 1.446645,1.71924 2.486744,3.55645 2.311331,4.08269 -0.175413,0.52624 -3.00653,1.03453 -6.29137,1.12952 -4.620872,0.13364 -6.829133,0.76362 -9.758094,2.7838 l -3.785657,2.61108 4.035657,0.64533 c 4.618666,0.73855 5.239489,2.60289 1.649959,4.95484 -2.75075,1.80236 -6.614302,9.19551 -6.614302,12.65689 l 0,2.35859 2.314451,-2.17432 c 1.272948,-1.19587 3.078266,-2.17431 4.011818,-2.17431 1.407682,0 1.592828,0.65374 1.084842,3.83052 -0.645606,4.03739 2.380989,12.92212 5.198488,15.26044 1.153096,0.95698 1.390401,0.365 1.390401,-3.46851 0,-5.50067 1.578539,-6.03635 4.829671,-1.63896 2.559422,3.4618 6.228325,5.56156 11.419255,6.53539 5.409866,1.01489 6.330982,2.63155 4.098077,7.19257 -1.015852,2.07502 -2.810683,4.24347 -3.988513,4.81878 -1.900522,0.92831 -1.984921,1.26017 -0.75,2.94902 1.940125,2.65329 1.735996,5.17626 -0.60849,7.52075 -2.402613,2.402606 -4.786212,2.538466 -7.777494,0.4433 z"
       style="fill:#000000" />
    <path
       inkscape:connector-curvature="0"
       id="path3111"
       d="m 54.444229,97.283634 c 1.909714,-1.90971 1.944143,-2.53659 0.265401,-4.83241 -1.864418,-2.54974 -6.099206,-1.76465 -6.520736,1.20888 -0.627011,4.42304 3.224669,6.654196 6.255335,3.62353 z"
       style="fill:#59de8f;fill-opacity:0.9982456" />
    <path
       inkscape:connector-curvature="0"
       id="path3109"
       d="m 57.601857,86.089754 c 0.59741,-0.40408 1.586501,-2.19719 2.197981,-3.98469 0.986716,-2.8844 0.906794,-3.25 -0.710473,-3.25 -3.417484,0 -10.539346,-3.07202 -13.420284,-5.78885 l -2.874921,-2.71115 0.41584,6.8709 c 0.318265,5.25866 0.858392,7.19449 2.301879,8.25 1.983332,1.45024 10.23403,1.86912 12.089978,0.61379 z"
       style="fill:#59de8f;fill-opacity:0.9982456" />
    <path
       inkscape:connector-curvature="0"
       id="path3107"
       d="m 23.433871,85.248074 c 0.918631,-0.35251 1.581787,-1.77501 1.581787,-3.39301 0,-4.18073 -5.059294,-5.62624 -7,-2 -2.040667,3.81302 1.180478,7.01918 5.418213,5.39301 z"
       style="fill:#58dd75;fill-opacity:1" />
    <path
       inkscape:connector-curvature="0"
       id="path3105"
       d="m 85.816216,82.769464 c 0.362526,-3.11868 -1.960785,-5.31571 -4.701418,-4.44587 -4.695363,1.49026 -3.107384,7.90425 1.815264,7.33203 1.93875,-0.22537 2.660787,-0.94741 2.886154,-2.88616 z"
       style="fill:#59dea7;fill-opacity:1" />
    <path
       inkscape:connector-curvature="0"
       id="path3103"
       d="m 36.386023,78.573514 c 1.641063,-1.19997 1.557748,-1.65202 -1.30887,-7.10155 -1.749057,-3.32501 -3.061495,-7.34332 -3.061495,-9.37343 0,-3.54991 -0.0021,-3.55155 -2.107927,-1.64846 -2.786731,2.51844 -5.468151,6.38443 -6.310069,9.09766 -0.519238,1.67334 0.187796,3.15364 2.985167,6.25 3.820387,4.22871 6.700803,5.0443 9.803194,2.77578 z"
       style="fill:#58dd75;fill-opacity:1" />
    <path
       inkscape:connector-curvature="0"
       id="path3101"
       d="m 77.399296,75.852184 c 1.988999,-2.20158 3.616362,-4.24893 3.616362,-4.54966 0,-0.30073 -0.703622,-1.90743 -1.563603,-3.57046 -1.556518,-3.00997 -1.575778,-3.01569 -4.25,-1.26234 -5.331262,3.49543 -7.761917,4.37351 -12.186397,4.40236 l -4.5,0.0293 4.69179,4.47682 c 6.168626,5.88599 9.210607,5.98758 14.191848,0.47394 z"
       style="fill:#59dea7;fill-opacity:1" />
    <path
       inkscape:connector-curvature="0"
       id="path3099"
       d="m 83.547777,59.406094 c 3.404276,-1.4224 3.467881,-1.55771 3.467881,-7.37756 0,-6.33427 -0.746177,-7.56969 -5.255594,-8.70148 -2.254192,-0.56577 -2.745402,-0.35685 -2.749983,1.1696 -0.01282,4.27331 -2.413809,9.9778 -5.497499,13.06149 l -3.296924,3.29692 4.932119,0 c 2.712665,0 6.492665,-0.65204 8.4,-1.44897 z"
       style="fill:#5bdfd2;fill-opacity:1" />
    <path
       inkscape:connector-curvature="0"
       id="path3097"
       d="m 25.015658,57.322944 c 0,-3.31789 2.570416,-9.38171 5.133238,-12.1097 2.015523,-2.14543 2.016275,-2.17595 0.0689,-2.79402 -2.512748,-0.79752 -11.411444,1.16729 -12.41155,2.74044 -0.417978,0.65747 -0.766851,3.53238 -0.775273,6.3887 -0.01251,4.24311 0.391322,5.47811 2.207193,6.75 3.422691,2.39734 5.777492,1.99978 5.777492,-0.97542 z"
       style="fill:#61de55;fill-opacity:1" />
    <path
       inkscape:connector-curvature="0"
       id="path3095"
       d="m 97.969977,54.410104 c 0.659565,-0.79472 1.052161,-2.48222 0.872445,-3.75 -0.599228,-4.22704 -7.826764,-3.19519 -7.826764,1.1174 0,3.6785 4.631278,5.4317 6.954319,2.6326 z"
       style="fill:#5bdfd2;fill-opacity:1" />
    <path
       inkscape:connector-curvature="0"
       id="path3093"
       d="m 11.975832,53.403054 c 1.450683,-1.74797 0.5567,-5.13567 -1.570683,-5.95202 -3.4881204,-1.33852 -7.3250783,4.13511 -4.7228247,6.73736 1.1883726,1.18838 5.0560137,0.70575 6.2935077,-0.78534 z"
       style="fill:#61de55;fill-opacity:1" />
    <path
       inkscape:connector-curvature="0"
       id="path3091"
       d="m 78.435029,37.404894 c 1.419346,-2.17259 2.580629,-4.62862 2.580629,-5.45784 0,-2.16581 -7.060786,-9.09199 -9.268689,-9.09199 -1.556112,0 -5.264742,1.44787 -6.582298,2.56977 -0.193043,0.16438 0.763762,1.79093 2.126234,3.61455 3.03411,4.06106 5.083642,10.15794 4.478625,13.32288 -0.437674,2.28955 -0.385332,2.30899 1.817108,0.67513 1.24727,-0.92528 3.429046,-3.45991 4.848391,-5.6325 z"
       style="fill:#5ad1df;fill-opacity:1" />
    <path
       inkscape:connector-curvature="0"
       id="path3089"
       d="m 28.52449,36.840774 c 1.30832,-2.11691 8.580532,-4.98571 12.638421,-4.98571 l 4.226929,0 -2.937091,-3.08928 c -3.298488,-3.4694 -7.465919,-5.91072 -10.089824,-5.91072 -2.619784,0 -8.347267,6.01199 -8.347267,8.76191 0,4.42979 2.913433,7.80521 4.508832,5.2238 z"
       style="fill:#93df58;fill-opacity:1" />
    <path
       inkscape:connector-curvature="0"
       id="path3087"
       d="m 60.541238,21.139724 c -0.724929,-3.8642 -2.96906,-5.28466 -8.349055,-5.28466 -4.588782,0 -7.913721,2.36934 -8.36635,5.96184 -0.274748,2.18066 0.166521,2.54442 3.863425,3.18481 5.255068,0.91031 9.983414,3.32562 11.587571,5.91912 1.119156,1.80937 1.269608,1.59116 1.557443,-2.25895 0.175237,-2.34399 0.04337,-5.72896 -0.293034,-7.52216 z"
       style="fill:#5cb5e4;fill-opacity:1" />
    <path
       inkscape:connector-curvature="0"
       id="path3085"
       d="m 25.015658,22.855064 c 1.636852,-3.05849 -0.42816,-6.20147 -3.817258,-5.80993 -2.739018,0.31643 -4.008168,3.21652 -2.793208,6.38266 0.823827,2.14685 5.36558,1.75336 6.610466,-0.57273 z"
       style="fill:#93df58;fill-opacity:1" />
    <path
       inkscape:connector-curvature="0"
       id="path3005"
       d="m 78.670646,25.026324 c -4.144752,-4.5799 0.434315,-11.81849 5.900704,-9.32784 1.36057,0.61992 2.980969,2.24032 3.600887,3.60089 2.531736,5.55656 -5.354242,10.30972 -9.501591,5.72695 z"
       style="fill:#000000" />
    <path
       inkscape:connector-curvature="0"
       id="path3003"
       d="m 86.649148,22.367794 c 0.790857,-2.06094 -1.461554,-5.51273 -3.597245,-5.51273 -1.978494,0 -5.036245,2.47196 -5.036245,4.07143 0,0.51071 0.910313,1.83888 2.022918,2.95149 1.631406,1.6314 2.416493,1.81228 4.056487,0.93458 1.118463,-0.59858 2.267801,-1.69873 2.554085,-2.44477 z"
       style="fill:#5ad1df;fill-opacity:1" />
    <path
       inkscape:connector-curvature="0"
       id="path3001"
       d="m 47.572362,11.632554 c -0.856187,-1.22237 -1.556704,-2.9526299 -1.556704,-3.8450099 0,-2.76477 3.510747,-5.10226 7.138405,-4.75281 4.073605,0.39239 5.930811,4.17824 4.061906,8.2800399 -1.559532,3.4228 -7.335455,3.61313 -9.643607,0.31778 z"
       style="fill:#000000" />
    <path
       inkscape:connector-curvature="0"
       id="path2995"
       d="m 54.081399,11.819884 c 1.09756,-0.5874 1.934259,-2.0861699 1.934259,-3.4648199 0,-2.03501 -2.389849,-4.5 -4.36283,-4.5 -1.044741,0 -3.63717,3.20742 -3.63717,4.5 0,1.29258 2.592429,4.4999999 3.63717,4.4999999 0.271872,0 1.364729,-0.46583 2.428571,-1.03518 z"
       style="fill:#5cb5e4;fill-opacity:1" />
  </g>
</svg>
