<?xml version="1.0" encoding="UTF-8" standalone="no"?>
<!-- Created with Inkscape (http://www.inkscape.org/) -->

<svg
   xmlns:dc="http://purl.org/dc/elements/1.1/"
   xmlns:cc="http://creativecommons.org/ns#"
   xmlns:rdf="http://www.w3.org/1999/02/22-rdf-syntax-ns#"
   xmlns:svg="http://www.w3.org/2000/svg"
   xmlns="http://www.w3.org/2000/svg"
   xmlns:sodipodi="http://sodipodi.sourceforge.net/DTD/sodipodi-0.dtd"
   xmlns:inkscape="http://www.inkscape.org/namespaces/inkscape"
   id="svg2985"
   version="1.1"
   inkscape:version="0.48.4 r9939"
   width="398"
   height="102"
   sodipodi:docname="logo.svg">
  <metadata
     id="metadata2991">
    <rdf:RDF>
      <cc:Work
         rdf:about="">
        <dc:format>image/svg+xml</dc:format>
        <dc:type
           rdf:resource="http://purl.org/dc/dcmitype/StillImage" />
        <dc:title></dc:title>
      </cc:Work>
    </rdf:RDF>
  </metadata>
  <defs
     id="defs2989" />
  <sodipodi:namedview
     pagecolor="#ffffff"
     bordercolor="#666666"
     borderopacity="1"
     objecttolerance="10"
     gridtolerance="10"
     guidetolerance="10"
     inkscape:pageopacity="0"
     inkscape:pageshadow="2"
     inkscape:window-width="1366"
     inkscape:window-height="717"
     id="namedview2987"
     showgrid="false"
     inkscape:zoom="1.0837566"
     inkscape:cx="276.14315"
     inkscape:cy="52.27658"
     inkscape:window-x="0"
     inkscape:window-y="26"
     inkscape:window-maximized="1"
     inkscape:current-layer="svg2985" />
  <path
     style="fill:#000000"
     d="m 49.222506,98.4433 c -2.544651,-1.78235 -3.019638,-6.61981 -0.849083,-8.64742 1.147699,-1.07211 0.902851,-1.48082 -1.489778,-2.48685 -2.183313,-0.91801 -3.147582,-2.26716 -4.060815,-5.68163 l -1.197615,-4.47775 -2.447466,1.92517 C 36.433767,81.23324 31.026254,81.62625 29.2,79.8 28.266667,78.86667 28,79.18413 28,81.22857 28,84.51713 25.60317,87 22.428571,87 19.588122,87 16,83.77528 16,81.22251 16,78.33394 18.930672,75 21.46984,75 c 2.202574,0 2.282589,-0.19563 1.225474,-2.99625 -0.927787,-2.45799 -0.82236,-3.51867 0.586864,-5.90429 2.34698,-3.97312 2.179098,-4.75721 -1.161642,-5.42535 -3.615465,-0.7231 -6.115963,-3.16641 -6.135849,-5.99554 -0.0089,-1.26304 -0.324061,-1.71618 -0.75,-1.07827 -1.728129,2.58811 -5.184095,3.53287 -8.0037927,2.18801 -3.7867318,-1.8061 -4.4164921,-7.84448 -1.0630887,-10.19329 3.0090582,-2.10763 5.4131664,-2.01405 7.7280274,0.30081 1.861111,1.86111 1.906502,1.8425 2.4783,-1.0165 0.636431,-3.18215 3.528963,-4.79821 8.940967,-4.99533 1.751695,-0.0638 2.441875,-0.31323 1.533732,-0.55429 -2.331117,-0.61878 -4.204966,-5.74769 -3.557535,-9.73734 0.50202,-3.09358 0.306735,-3.42276 -2.345173,-3.95315 -5.100414,-1.02008 -5.385125,-9.98897 -0.357153,-11.25091 6.303128,-1.58198 10.100749,3.74159 6.403026,8.97588 L 24.776732,26.5 l 3.16232,-3.25 c 3.847384,-3.95406 7.726505,-4.24285 11.734223,-0.87359 L 42.5,24.75282 42.719913,21.7468 c 0.120951,-1.65331 0.918825,-4.07269 1.773052,-5.37641 C 45.875775,14.25996 46.794262,14 52.868065,14 c 7.598158,0 9.406795,1.13209 10.570803,6.61663 l 0.661455,3.11662 3.661281,-1.86662 C 69.775308,20.83998 72.166156,20 73.0746,20 74.853127,20 84,29.20682 84,30.997 c 0,0.59547 -0.876413,2.80059 -1.947583,4.90025 l -1.947584,3.81758 3.931267,1.17784 c 4.141223,1.24074 5.954198,3.45186 5.978642,7.29159 L 90.029484,50.5 91.287913,48 C 93.794647,43.02011 102,45.05381 102,50.65499 102,53.43921 98.740094,57 96.19113,57 c -2.1397,0 -4.745146,-1.89585 -5.497149,-4 -0.338753,-0.94785 -0.565147,-0.64758 -0.615034,0.81574 -0.129197,3.78971 -1.862279,5.97879 -5.32063,6.72058 -4.723359,1.01311 -5.035388,1.39187 -3.312654,4.0211 1.868847,2.85222 2.037348,8.556 0.304337,10.30183 -1.002273,1.00968 -0.901652,1.12662 0.50772,0.59004 C 85.323382,74.28214 89,77.57502 89,81.48787 89,85.27019 86.988046,87 82.588794,87 c -3.020319,0 -6.145531,-4.09983 -5.1395,-6.74228 0.536575,-1.40937 0.419638,-1.50999 -0.590048,-0.50772 -1.562788,1.55131 -6.267807,1.61962 -9.174987,0.13321 C 64.562394,78.28703 57,70.81705 57,69.32952 c 0,-0.86098 1.71954,-1.23352 5.485951,-1.18854 4.291789,0.0513 6.522972,-0.54585 10.25,-2.74314 L 77.5,62.58917 73.25,61.73574 C 70.9125,61.26635 69,60.44504 69,59.9106 69,59.37616 70.547525,57.58015 72.438944,55.91946 75.686036,53.06848 76.928299,50.51735 78.486545,43.5 l 0.66617,-3 -2.881077,2.75 c -1.584591,1.5125 -3.64927,2.75 -4.588174,2.75 -1.432582,0 -1.603868,-0.64557 -1.065152,-4.01452 0.533327,-3.33524 0.07001,-5.15419 -2.738182,-10.75 L 64.5,24.5 64.19774,29.75 c -0.357167,6.2037 -1.596495,6.63012 -5.403277,1.85912 -1.68485,-2.1116 -4.48718,-3.99788 -7.428139,-4.99997 -7.033627,-2.3966 -7.964843,-2.10916 -4.913848,1.51674 1.446645,1.71924 2.486744,3.55645 2.311331,4.08269 -0.175413,0.52624 -3.00653,1.03453 -6.29137,1.12952 -4.620872,0.13364 -6.829133,0.76362 -9.758094,2.7838 l -3.785657,2.61108 4.035657,0.64533 c 4.618666,0.73855 5.239489,2.60289 1.649959,4.95484 C 31.863552,46.13551 28,53.52866 28,56.99004 l 0,2.35859 2.314451,-2.17432 C 31.587399,55.97844 33.392717,55 34.326269,55 c 1.407682,0 1.592828,0.65374 1.084842,3.83052 -0.645606,4.03739 2.380989,12.92212 5.198488,15.26044 C 41.762695,75.04794 42,74.45596 42,70.62245 c 0,-5.50067 1.578539,-6.03635 4.829671,-1.63896 2.559422,3.4618 6.228325,5.56156 11.419255,6.53539 5.409866,1.01489 6.330982,2.63155 4.098077,7.19257 -1.015852,2.07502 -2.810683,4.24347 -3.988513,4.81878 -1.900522,0.92831 -1.984921,1.26017 -0.75,2.94902 C 59.548615,93.13254 59.344486,95.65551 57,98 c -2.402613,2.40261 -4.786212,2.53847 -7.777494,0.4433 z"
     id="path3113"
     inkscape:connector-curvature="0" />
  <path
     style="fill:#59de8f;fill-opacity:0.9982456"
     d="m 55.428571,96.42857 c 1.909714,-1.90971 1.944143,-2.53659 0.265401,-4.83241 -1.864418,-2.54974 -6.099206,-1.76465 -6.520736,1.20888 -0.627011,4.42304 3.224669,6.6542 6.255335,3.62353 z"
     id="path3111"
     inkscape:connector-curvature="0" />
  <path
     style="fill:#59de8f;fill-opacity:0.9982456"
     d="M 58.586199,85.23469 C 59.183609,84.83061 60.1727,83.0375 60.78418,81.25 61.770896,78.3656 61.690974,78 60.073707,78 56.656223,78 49.534361,74.92798 46.653423,72.21115 L 43.778502,69.5 l 0.41584,6.8709 c 0.318265,5.25866 0.858392,7.19449 2.301879,8.25 1.983332,1.45024 10.23403,1.86912 12.089978,0.61379 z"
     id="path3109"
     inkscape:connector-curvature="0" />
  <path
     style="fill:#58dd75;fill-opacity:1"
     d="M 24.418213,84.39301 C 25.336844,84.0405 26,82.618 26,81 c 0,-4.18073 -5.059294,-5.62624 -7,-2 -2.040667,3.81302 1.180478,7.01918 5.418213,5.39301 z"
     id="path3107"
     inkscape:connector-curvature="0" />
  <path
     style="fill:#59dea7;fill-opacity:1"
     d="m 86.800558,81.9144 c 0.362526,-3.11868 -1.960785,-5.31571 -4.701418,-4.44587 -4.695363,1.49026 -3.107384,7.90425 1.815264,7.33203 1.93875,-0.22537 2.660787,-0.94741 2.886154,-2.88616 z"
     id="path3105"
     inkscape:connector-curvature="0" />
  <path
     style="fill:#58dd75;fill-opacity:1"
     d="M 37.370365,77.71845 C 39.011428,76.51848 38.928113,76.06643 36.061495,70.6169 34.312438,67.29189 33,63.27358 33,61.24347 c 0,-3.54991 -0.0021,-3.55155 -2.107927,-1.64846 -2.786731,2.51844 -5.468151,6.38443 -6.310069,9.09766 -0.519238,1.67334 0.187796,3.15364 2.985167,6.25 3.820387,4.22871 6.700803,5.0443 9.803194,2.77578 z"
     id="path3103"
     inkscape:connector-curvature="0" />
  <path
     style="fill:#59dea7;fill-opacity:1"
     d="M 78.383638,74.99712 C 80.372637,72.79554 82,70.74819 82,70.44746 82,70.14673 81.296378,68.54003 80.436397,66.877 78.879879,63.86703 78.860619,63.86131 76.186397,65.61466 70.855135,69.11009 68.42448,69.98817 64,70.01702 l -4.5,0.0293 4.69179,4.47682 c 6.168626,5.88599 9.210607,5.98758 14.191848,0.47394 z"
     id="path3101"
     inkscape:connector-curvature="0" />
  <path
     style="fill:#5bdfd2;fill-opacity:1"
     d="M 84.532119,58.55103 C 87.936395,57.12863 88,56.99332 88,51.17347 c 0,-6.33427 -0.746177,-7.56969 -5.255594,-8.70148 -2.254192,-0.56577 -2.745402,-0.35685 -2.749983,1.1696 -0.01282,4.27331 -2.413809,9.9778 -5.497499,13.06149 L 71.2,60 l 4.932119,0 c 2.712665,0 6.492665,-0.65204 8.4,-1.44897 z"
     id="path3099"
     inkscape:connector-curvature="0" />
  <path
     style="fill:#61de55;fill-opacity:1"
     d="m 26,56.46788 c 0,-3.31789 2.570416,-9.38171 5.133238,-12.1097 2.015523,-2.14543 2.016275,-2.17595 0.0689,-2.79402 -2.512748,-0.79752 -11.411444,1.16729 -12.41155,2.74044 -0.417978,0.65747 -0.766851,3.53238 -0.775273,6.3887 -0.01251,4.24311 0.391322,5.47811 2.207193,6.75 C 23.645199,59.84064 26,59.44308 26,56.46788 z"
     id="path3097"
     inkscape:connector-curvature="0" />
  <path
     style="fill:#5bdfd2;fill-opacity:1"
     d="m 98.954319,53.55504 c 0.659565,-0.79472 1.052161,-2.48222 0.872445,-3.75 C 99.227536,45.578 92,46.60985 92,50.92244 c 0,3.6785 4.631278,5.4317 6.954319,2.6326 z"
     id="path3095"
     inkscape:connector-curvature="0" />
  <path
     style="fill:#61de55;fill-opacity:1"
     d="m 12.960174,52.54799 c 1.450683,-1.74797 0.5567,-5.13567 -1.570683,-5.95202 -3.48812,-1.33852 -7.3250779,4.13511 -4.7228243,6.73736 1.1883726,1.18838 5.0560133,0.70575 6.2935073,-0.78534 z"
     id="path3093"
     inkscape:connector-curvature="0" />
  <path
     style="fill:#5ad1df;fill-opacity:1"
     d="M 79.419371,36.54983 C 80.838717,34.37724 82,31.92121 82,31.09199 82,28.92618 74.939214,22 72.731311,22 c -1.556112,0 -5.264742,1.44787 -6.582298,2.56977 -0.193043,0.16438 0.763762,1.79093 2.126234,3.61455 3.03411,4.06106 5.083642,10.15794 4.478625,13.32288 -0.437674,2.28955 -0.385332,2.30899 1.817108,0.67513 1.24727,-0.92528 3.429046,-3.45991 4.848391,-5.6325 z"
     id="path3091"
     inkscape:connector-curvature="0" />
  <path
     style="fill:#93df58;fill-opacity:1"
     d="M 29.508832,35.98571 C 30.817152,33.8688 38.089364,31 42.147253,31 l 4.226929,0 -2.937091,-3.08928 C 40.138603,24.44132 35.971172,22 33.347267,22 30.727483,22 25,28.01199 25,30.76191 c 0,4.42979 2.913433,7.80521 4.508832,5.2238 z"
     id="path3089"
     inkscape:connector-curvature="0" />
  <path
     style="fill:#5cb5e4;fill-opacity:1"
     d="M 61.52558,20.28466 C 60.800651,16.42046 58.55652,15 53.176525,15 c -4.588782,0 -7.913721,2.36934 -8.36635,5.96184 -0.274748,2.18066 0.166521,2.54442 3.863425,3.18481 5.255068,0.91031 9.983414,3.32562 11.587571,5.91912 1.119156,1.80937 1.269608,1.59116 1.557443,-2.25895 0.175237,-2.34399 0.04337,-5.72896 -0.293034,-7.52216 z"
     id="path3087"
     inkscape:connector-curvature="0" />
  <path
     style="fill:#93df58;fill-opacity:1"
     d="m 26,22 c 1.636852,-3.05849 -0.42816,-6.20147 -3.817258,-5.80993 -2.739018,0.31643 -4.008168,3.21652 -2.793208,6.38266 C 20.213361,24.71958 24.755114,24.32609 26,22 z"
     id="path3085"
     inkscape:connector-curvature="0" />
  <path
     style="fill:#000000"
     d="m 199.65499,65.17126 c -4.96159,-5.4825 2.49032,-21.99776 9.47772,-21.00495 2.93283,0.41671 5.61231,5.42768 4.14685,7.75514 -1.57428,2.50027 -4.02789,2.44235 -4.85403,-0.11458 -0.67865,-2.10048 -0.95155,-1.86085 -3.0502,2.67836 -2.81394,6.08633 -1.89289,7.60887 3.14858,5.20476 C 210.47308,58.76049 212.50259,58 213.03393,58 c 2.10148,0 0.79603,3.96529 -2.11066,6.41111 -3.67979,3.09634 -8.83909,3.44438 -11.26828,0.76015 z"
     id="path3083"
     inkscape:connector-curvature="0" />
  <path
     style="fill:#5cb5e4;fill-opacity:1"
     d="m 209.69424,62.43646 2.80576,-2.56353 -2.69218,1.64066 c -1.48071,0.90237 -3.73071,1.49346 -5,1.31354 -3.36089,-0.4764 -3.68422,-6.23699 -0.60518,-10.78188 2.88484,-4.25823 4.56678,-4.84278 5.63392,-1.95803 0.45874,1.2401 1.08035,1.84028 1.38134,1.33375 C 212.06581,49.99408 210.22489,46 208.71932,46 c -3.5299,0 -10.17649,11.15783 -8.93533,15 1.5192,4.70286 5.67579,5.30535 9.91025,1.43646 z"
     id="path3081"
     inkscape:connector-curvature="0" />
  <path
     style="fill:#000000"
     d="m 292.96579,64.93608 c -1.66434,-3.10985 0.44803,-5.13668 4.55122,-4.36691 3.45179,0.64756 10.00004,-1.92354 9.00392,-3.5353 -0.29945,-0.48452 -2.79345,-1.62795 -5.54221,-2.54094 -7.18467,-2.38636 -9.32911,-7.94256 -4.72872,-12.252 6.23907,-5.8445 17.75,-5.63332 17.75,0.32564 0,3.13017 -2.50759,4.18903 -4.86599,2.05471 -2.12985,-1.92749 -3.20307,-2.00257 -6.58696,-0.46077 -3.80468,1.73353 -3.0996,3.47025 2.20295,5.42625 6.19808,2.28634 8.25,4.12534 8.25,7.39391 0,6.94916 -16.96697,13.68659 -20.03421,7.95541 z"
     id="path3079"
     inkscape:connector-curvature="0" />
  <path
     style="fill:#5cb5e4;fill-opacity:1"
     d="m 304.97476,62.75 c 8.17553,-4.18206 7.98115,-7.88953 -0.58017,-11.06603 -6.10405,-2.26478 -6.79678,-2.94536 -6.04535,-5.93932 1.07506,-4.28337 8.39041,-6.19523 11.82202,-3.08966 C 311.77593,44.1072 312,44.1203 312,42.76198 c 0,-3.44233 -7.27358,-3.7261 -12.10212,-0.47215 -2.57906,1.73803 -3.39788,3.00105 -3.39788,5.24116 0,2.63189 0.57434,3.18028 5.30656,5.06673 6.27436,2.50121 7.67492,3.70519 6.84028,5.88021 -0.84609,2.20487 -7.37651,4.78874 -10.8241,4.28275 C 295.9359,62.48375 295,62.7863 295,63.67319 c 0,2.05987 5.05838,1.5917 9.97476,-0.92319 z"
     id="path3077"
     inkscape:connector-curvature="0" />
  <path
     style="fill:#000000"
     d="m 336.65499,65.17126 c -4.96159,-5.4825 2.49032,-21.99776 9.47772,-21.00495 2.93283,0.41671 5.61231,5.42768 4.14685,7.75514 -1.57428,2.50027 -4.02789,2.44235 -4.85403,-0.11458 -0.67865,-2.10048 -0.95155,-1.86085 -3.0502,2.67836 -2.81394,6.08633 -1.89289,7.60887 3.14858,5.20476 C 347.47308,58.76049 349.50259,58 350.03393,58 c 2.10148,0 0.79603,3.96529 -2.11066,6.41111 -3.67979,3.09634 -8.83909,3.44438 -11.26828,0.76015 z"
     id="path3075"
     inkscape:connector-curvature="0" />
  <path
     style="fill:#5cb5e4;fill-opacity:1"
     d="m 346.69424,62.43646 2.80576,-2.56353 -2.69218,1.64066 c -1.48071,0.90237 -3.73071,1.49346 -5,1.31354 -3.36089,-0.4764 -3.68422,-6.23699 -0.60518,-10.78188 2.88484,-4.25823 4.56678,-4.84278 5.63392,-1.95803 0.45874,1.2401 1.08035,1.84028 1.38134,1.33375 C 349.06581,49.99408 347.22489,46 345.71932,46 c -3.5299,0 -10.17649,11.15783 -8.93533,15 1.5192,4.70286 5.67579,5.30535 9.91025,1.43646 z"
     id="path3073"
     inkscape:connector-curvature="0" />
  <path
     style="fill:#000000"
     d="m 164.22251,64.4433 c -4.89193,-3.42644 -1.83441,-15.55866 4.86929,-19.32135 3.61057,-2.02656 7.70128,-0.79458 8.54673,2.57399 0.91855,3.65977 -1.29837,7.18732 -6.06683,9.65352 -2.16056,1.11742 -3.40779,2.20518 -2.77161,2.41724 0.63618,0.21206 2.96138,-0.62873 5.16711,-1.86842 2.20574,-1.23969 4.2945,-1.96991 4.64171,-1.6227 1.40067,1.40067 -0.85734,5.90521 -3.88575,7.7517 -3.88695,2.36997 -7.50627,2.51336 -10.50065,0.41602 z"
     id="path3071"
     inkscape:connector-curvature="0" />
  <path
     style="fill:#5cb5e4;fill-opacity:1"
     d="m 175.13016,61.38221 c 2.57961,-2.33452 1.60908,-2.91268 -1.48558,-0.88498 -3.26515,2.1394 -7.05955,1.62918 -7.41606,-0.99723 -0.20368,-1.50053 0.72898,-2.41685 3.73461,-3.66916 4.16101,-1.73372 6.76015,-5.50361 5.69971,-8.26707 -1.58106,-4.12019 -9.48782,0.70103 -11.40747,6.95583 -1.12812,3.67575 -0.84329,5.82542 1.10348,8.3282 1.34955,1.73499 7.2052,0.85671 9.77131,-1.46559 z"
     id="path3069"
     inkscape:connector-curvature="0" />
  <path
     style="fill:#000000"
     d="m 166.51815,55.02937 c -1.71122,-2.76881 4.70949,-9.24278 7.4729,-7.5349 1.66835,1.0311 1.16279,2.50553 -1.91413,5.58245 -3.05662,3.05663 -4.55179,3.58178 -5.55877,1.95245 z"
     id="path3067"
     inkscape:connector-curvature="0" />
  <path
     style="fill:#ffffff"
     d="m 172.56259,49.22926 c -0.71756,-0.71757 -2.48611,0.75574 -3.69293,3.07643 -1.08792,2.09205 -1.01845,2.08151 1.49068,-0.2263 1.44748,-1.33133 2.43849,-2.6139 2.20225,-2.85013 z"
     id="path3065"
     inkscape:connector-curvature="0" />
  <path
     style="fill:#000000"
     d="m 181.70885,65.37552 c -1.29365,-1.29365 -0.78994,-16.88236 0.60725,-18.79313 1.80948,-2.47462 5.20729,-1.65863 5.10167,1.22518 l -0.0822,2.24515 2.63696,-2.52636 C 194.24157,43.43632 199,44.6435 199,49.81658 c 0,2.05332 -0.38467,2.34304 -2.55902,1.92739 -2.01288,-0.38479 -3.12668,0.22224 -5.21894,2.8444 -1.46297,1.83347 -3.13655,5.03864 -3.71908,7.12261 -1.01849,3.64356 -3.95675,5.50189 -5.79411,3.66454 z"
     id="path3063"
     inkscape:connector-curvature="0" />
  <path
     style="fill:#5cb5e4;fill-opacity:1"
     d="m 185.88682,59.98342 c 1.57465,-5.2557 6.83311,-11.28992 9.28071,-10.64986 2.2975,0.60081 2.42962,-1.16718 0.15252,-2.04099 -1.1813,-0.4533 -2.81013,0.62889 -5.48746,3.64586 -3.03225,3.41692 -3.93382,3.96134 -4.42789,2.67381 -0.34122,-0.88919 -0.33829,-2.74071 0.007,-4.11448 0.6829,-2.72092 -0.819,-3.48341 -1.80422,-0.91597 C 182.68417,50.98662 182.88228,64 183.84171,64 c 0.46294,0 1.38324,-1.80746 2.04511,-4.01658 z"
     id="path3061"
     inkscape:connector-curvature="0" />
  <path
     style="fill:#000000"
     d="m 229.2,64.8 c -0.66,-0.66 -1.2,-1.98851 -1.2,-2.95225 0,-1.4933 -0.39103,-1.38986 -2.64602,0.7 C 223.89866,63.89649 221.71841,65 220.50896,65 217.9013,65 215,62.09657 215,59.48698 c 0,-3.28584 4.11051,-10.46949 7.44676,-13.01417 3.78306,-2.88548 5.70999,-3.07143 9.06282,-0.87457 2.26971,1.48716 2.39605,2.01126 1.81803,7.54146 -0.43131,4.1266 -0.20837,6.71459 0.72939,8.4668 1.15053,2.1498 1.13525,2.65979 -0.10321,3.44322 -1.97387,1.24865 -3.32647,1.1776 -4.75379,-0.24972 z"
     id="path3059"
     inkscape:connector-curvature="0" />
  <path
     style="fill:#5cb5e4;fill-opacity:1"
     d="m 232.00553,62.50666 c -0.81035,-0.97641 -1.09724,-3.72541 -0.82878,-7.94145 0.37732,-5.92577 0.22312,-6.54843 -1.90358,-7.68661 -1.9649,-1.05158 -2.72611,-0.93938 -5.04367,0.74342 -3.76771,2.73578 -7.89423,11.09968 -6.53852,13.25271 1.62235,2.5765 3.79383,2.42965 7.26517,-0.49129 2.63137,-2.21415 3.38714,-2.4523 4.11804,-1.29764 0.49235,0.77781 0.90208,2.2017 0.9105,3.1642 0.008,0.9625 0.74541,1.75 1.63775,1.75 1.32558,0 1.39568,-0.27325 0.38309,-1.49334 z"
     id="path3057"
     inkscape:connector-curvature="0" />
  <path
     style="fill:#000000;fill-opacity:1"
     d="m 219.37907,59.54547 c -0.76369,-1.99017 3.35896,-9.06731 6.15311,-10.56269 5.41583,-2.89847 5.97296,2.34545 0.85146,8.01434 -3.77651,4.18014 -6.05964,5.01077 -7.00457,2.54835 z"
     id="path3055"
     inkscape:connector-curvature="0" />
  <path
     style="fill:#ffffff"
     d="M 228,51.01469 C 228,50.45661 227.56622,50 227.03605,50 c -1.11438,0 -6.0493,6.96599 -6.00899,8.48214 C 221.06186,59.79258 228,52.36244 228,51.01469 z"
     id="path3053"
     inkscape:connector-curvature="0" />
  <path
     style="fill:#000000"
     d="m 261,64 c -1.24502,-1.24502 -2,-3.33333 -2,-5.53212 0,-13.02417 14.30658,-20.15904 17.99747,-8.97556 1.55766,4.71977 -0.0688,9.48515 -4.59332,13.45769 C 268.31675,66.5388 263.94162,66.94162 261,64 z"
     id="path3051"
     inkscape:connector-curvature="0" />
  <path
     style="fill:#5cb5e4;fill-opacity:1"
     d="m 270.48632,61.8321 c 3.972,-3.12438 5.74513,-7.86971 4.3915,-11.75275 -2.11327,-6.06214 -9.50957,-4.59829 -12.46135,2.46631 -3.78465,9.05795 1.14642,14.73241 8.06985,9.28644 z"
     id="path3049"
     inkscape:connector-curvature="0" />
  <path
     style="fill:#000000;fill-opacity:1"
     d="m 263.66667,61.33333 c -1.18046,-1.18046 -0.71084,-6.34723 0.85152,-9.3685 C 267.22177,46.73668 274,47.29139 274,52.74079 c 0,5.23793 -7.47348,11.4524 -10.33333,8.59254 z"
     id="path3047"
     inkscape:connector-curvature="0" />
  <path
     style="fill:#ffffff"
     d="M 268.11361,58.9392 C 271.79234,56.9704 272.83418,50 269.44972,50 267.48372,50 265,54.03142 265,57.22251 c 0,3.09196 0.2679,3.23967 3.11361,1.71669 z"
     id="path3045"
     inkscape:connector-curvature="0" />
  <path
     style="fill:#000000"
     d="m 317,64 c -1.24502,-1.24502 -2,-3.33333 -2,-5.53212 0,-13.02417 14.30658,-20.15904 17.99747,-8.97556 1.55766,4.71977 -0.0688,9.48515 -4.59332,13.45769 C 324.31675,66.5388 319.94162,66.94162 317,64 z"
     id="path3043"
     inkscape:connector-curvature="0" />
  <path
     style="fill:#5cb5e4;fill-opacity:1"
     d="m 326.48632,61.8321 c 3.972,-3.12438 5.74513,-7.86971 4.3915,-11.75275 -2.11327,-6.06214 -9.50957,-4.59829 -12.46135,2.46631 -3.78465,9.05795 1.14642,14.73241 8.06985,9.28644 z"
     id="path3041"
     inkscape:connector-curvature="0" />
  <path
     style="fill:#000000"
     d="m 319.66667,61.33333 c -1.18046,-1.18046 -0.71084,-6.34723 0.85152,-9.3685 C 323.22177,46.73668 330,47.29139 330,52.74079 c 0,5.23793 -7.47348,11.4524 -10.33333,8.59254 z"
     id="path3039"
     inkscape:connector-curvature="0" />
  <path
     style="fill:#ffffff"
     d="M 324.11361,58.9392 C 327.79234,56.9704 328.83418,50 325.44972,50 323.48372,50 321,54.03142 321,57.22251 c 0,3.09196 0.2679,3.23967 3.11361,1.71669 z"
     id="path3037"
     inkscape:connector-curvature="0" />
  <path
     style="fill:#000000"
     d="m 353.97648,64.47165 c -1.12068,-1.35033 -1.10565,-3.03245 0.092,-10.29288 C 355.4225,45.96983 355.63534,45.5 358,45.5 c 2.80484,0 2.89111,0.88644 1.31263,13.48704 -0.85947,6.86092 -2.65894,8.71046 -5.33615,5.48462 z"
     id="path3035"
     inkscape:connector-curvature="0" />
  <path
     style="fill:#5cb5e4;fill-opacity:1"
     d="m 358.43288,50.25 c 0.42018,-1.8809 0.3291,-3.25 -0.21623,-3.25 -1.27355,0 -3.56733,14.63575 -2.54401,16.23247 0.49885,0.77837 1.04811,-0.855 1.42327,-4.23247 0.33602,-3.025 0.93765,-6.9625 1.33697,-8.75 z"
     id="path3033"
     inkscape:connector-curvature="0" />
  <path
     style="fill:#000000"
     d="m 376.2,64.8 c -0.66,-0.66 -1.2,-1.98851 -1.2,-2.95225 0,-1.4933 -0.39103,-1.38986 -2.64602,0.7 C 370.89866,63.89649 368.71841,65 367.50896,65 364.9013,65 362,62.09657 362,59.48698 c 0,-3.28584 4.11051,-10.46949 7.44676,-13.01417 3.78306,-2.88548 5.70999,-3.07143 9.06282,-0.87457 2.26971,1.48716 2.39605,2.01126 1.81803,7.54146 -0.43131,4.1266 -0.20837,6.71459 0.72939,8.4668 1.15053,2.1498 1.13525,2.65979 -0.10321,3.44322 -1.97387,1.24865 -3.32647,1.1776 -4.75379,-0.24972 z"
     id="path3031"
     inkscape:connector-curvature="0" />
  <path
     style="fill:#5cb5e4;fill-opacity:1"
     d="m 379.00553,62.50666 c -0.81035,-0.97641 -1.09724,-3.72541 -0.82878,-7.94145 0.37732,-5.92577 0.22312,-6.54843 -1.90358,-7.68661 -1.9649,-1.05158 -2.72611,-0.93938 -5.04367,0.74342 -3.76771,2.73578 -7.89423,11.09968 -6.53852,13.25271 1.62235,2.5765 3.79383,2.42965 7.26517,-0.49129 2.63137,-2.21415 3.38714,-2.4523 4.11804,-1.29764 0.49235,0.77781 0.90208,2.2017 0.9105,3.1642 0.008,0.9625 0.74541,1.75 1.63775,1.75 1.32558,0 1.39568,-0.27325 0.38309,-1.49334 z"
     id="path3029"
     inkscape:connector-curvature="0" />
  <path
     style="fill:#000000"
     d="m 366.37907,59.54547 c -0.76369,-1.99017 3.35896,-9.06731 6.15311,-10.56269 5.41583,-2.89847 5.97296,2.34545 0.85146,8.01434 -3.77651,4.18014 -6.05964,5.01077 -7.00457,2.54835 z"
     id="path3027"
     inkscape:connector-curvature="0" />
  <path
     style="fill:#ffffff"
     d="M 375,51.01469 C 375,50.45661 374.56622,50 374.03605,50 c -1.11438,0 -6.0493,6.96599 -6.00899,8.48214 C 368.06186,59.79258 375,52.36244 375,51.01469 z"
     id="path3025"
     inkscape:connector-curvature="0" />
  <path
     style="fill:#000000"
     d="m 384.32706,64.40993 c -0.92346,-2.40652 0.3872,-19.31441 1.8845,-24.31053 1.49655,-4.99362 4.02422,-7.26362 5.94703,-5.34081 0.95152,0.95152 0.84671,2.78248 -0.48529,8.47753 -0.93441,3.99513 -1.69317,10.21138 -1.68612,13.81388 0.0127,6.47116 -1.01725,8.95 -3.71856,8.95 -0.73227,0 -1.60596,-0.71553 -1.94156,-1.59007 z"
     id="path3023"
     inkscape:connector-curvature="0" />
  <path
     style="fill:#5cb5e4;fill-opacity:1"
     d="m 388.01187,56.25 c 0.007,-4.2625 0.67619,-10.225 1.48813,-13.25 1.76045,-6.55878 1.85136,-7.75136 0.48687,-6.38687 C 387.23928,39.36072 384.55207,64 387,64 c 0.57962,0 1.00499,-3.25791 1.01187,-7.75 z"
     id="path3021"
     inkscape:connector-curvature="0" />
  <path
     sodipodi:type="inkscape:offset"
     inkscape:radius="-0.9331727"
     inkscape:original="M 136.3125 158.1875 C 135.74123 158.1955 135.18053 158.45052 134.59375 158.9375 C 133.72265 159.66045 133 161.3511 133 162.71875 C 133 164.0864 132.03323 168.93356 130.84375 173.46875 C 129.65428 178.00394 128.96529 182.43894 129.3125 183.34375 C 129.65971 184.24857 130.86912 185 132 185 C 134.64638 185 135.86902 178.77532 136.65625 174.1875 C 137.44347 169.59968 137.55386 171.88743 141.5625 178.375 C 142.87116 180.49293 145.88849 178.02522 149.34375 173.5 L 152.59375 169.25 L 152.53125 176.875 C 152.48765 184.35312 152.54805 184.5 155 184.5 C 157.43063 184.5 157.52196 184.24473 158.1875 175.5 C 158.564 170.55313 159.14711 165.12071 159.46875 163.40625 C 160.146 159.7962 158.1804 157.49751 155.21875 158.4375 C 154.1813 158.76677 151.38273 161.71097 149 165 C 146.61726 168.28904 144.39841 170.74216 144.09375 170.4375 C 143.78908 170.13284 142.62718 167.5853 141.5 164.78125 C 139.70193 160.30826 138.02631 158.16268 136.3125 158.1875 z "
     style="fill:#5cb5e4;fill-opacity:1"
     id="path3917"
     d="m 136.3125,159.125 c -0.30218,0.004 -0.63982,0.12859 -1.125,0.53125 -0.5161,0.42833 -1.25,2.02357 -1.25,3.0625 0,0.90371 -0.26169,2.40448 -0.65625,4.375 -0.39456,1.97052 -0.93155,4.3385 -1.53125,6.625 -0.58701,2.23816 -1.04131,4.43959 -1.3125,6.1875 -0.1356,0.87396 -0.24955,1.62107 -0.28125,2.1875 -0.0317,0.56643 0.0728,1.01449 0.0313,0.90625 0.14945,0.38946 1.09499,1.0625 1.8125,1.0625 0.29577,0 0.60152,-0.16432 1,-0.6875 0.39848,-0.52318 0.80714,-1.36326 1.15625,-2.375 0.69822,-2.02347 1.20186,-4.68487 1.59375,-6.96875 0.19961,-1.16328 0.26897,-1.86169 0.625,-2.5 0.089,-0.15958 0.20932,-0.31347 0.4375,-0.46875 0.22818,-0.15528 0.59382,-0.24617 0.875,-0.1875 0.56236,0.11734 0.73147,0.42156 0.9375,0.6875 0.82414,1.06376 1.7382,3.10718 3.71875,6.3125 0.20028,0.32413 0.27335,0.34559 0.5,0.34375 0.22665,-0.002 0.69077,-0.16099 1.28125,-0.5625 1.18095,-0.80301 2.77098,-2.49525 4.46875,-4.71875 l 3.25,-4.25 a 0.93326602,0.93326602 0 0 1 1.6875,0.5625 l -0.0625,7.625 c -0.0218,3.73651 0.0443,5.68028 0.25,6.3125 0.10287,0.31611 0.0774,0.27138 0.1875,0.3125 0.11011,0.0411 0.49008,0.0625 1.09375,0.0625 0.59132,0 0.95081,-0.044 1.0625,-0.0937 0.11169,-0.0497 0.15607,-0.0584 0.3125,-0.5 0.31287,-0.88315 0.54242,-3.16142 0.875,-7.53125 0.37811,-4.96802 0.96268,-10.35407 1.3125,-12.21875 0.30184,-1.60894 -0.0275,-2.78075 -0.5625,-3.40625 -0.53497,-0.6255 -1.28497,-0.88564 -2.5,-0.5 0.008,-0.002 -0.3448,0.19134 -0.75,0.53125 -0.4052,0.33991 -0.9225,0.83035 -1.46875,1.40625 -1.0925,1.1518 -2.36411,2.70142 -3.53125,4.3125 -1.20744,1.66671 -2.35665,3.10106 -3.28125,4.125 -0.4623,0.51197 -0.86561,0.92636 -1.21875,1.21875 -0.17657,0.14619 -0.3366,0.26898 -0.5625,0.375 -0.11295,0.053 -0.25316,0.11193 -0.46875,0.125 -0.21559,0.0131 -0.5514,-0.0827 -0.78125,-0.3125 -0.32627,-0.32626 -0.34995,-0.49537 -0.53125,-0.84375 -0.1813,-0.34838 -0.41732,-0.79059 -0.65625,-1.3125 -0.47785,-1.04381 -1.0565,-2.39826 -1.625,-3.8125 -0.88088,-2.19133 -1.70463,-3.77698 -2.46875,-4.75 -0.76412,-0.97302 -1.38055,-1.25671 -1.84375,-1.25 z"
     transform="translate(0,-120)" />
  <path
     style="fill:#000000"
     d="m 131.99337,65 c -1.13088,0 -2.34022,-0.7403 -2.68743,-1.64512 -0.34721,-0.90481 0.34191,-5.35573 1.53138,-9.89092 C 132.0268,48.92877 133,44.09917 133,42.73152 c 0,-1.36765 0.71272,-3.07814 1.58382,-3.80109 2.34711,-1.94792 4.52041,-0.1083 6.91783,5.85569 1.12718,2.80405 2.29868,5.34755 2.60335,5.65221 0.30466,0.30466 2.50343,-2.1371 4.88617,-5.42614 2.38273,-3.28903 5.18107,-6.24947 6.21852,-6.57874 2.96165,-0.93999 4.92144,1.35067 4.24419,4.96072 -0.32164,1.71446 -0.89284,7.16464 -1.26934,12.11151 C 157.519,64.25041 157.43063,64.5 155,64.5 c -2.45196,0 -2.49915,-0.1465 -2.45553,-7.62462 l 0.0445,-7.62462 -3.24371,4.24815 c -3.45526,4.52522 -6.48819,6.99921 -7.79685,4.88128 -4.00864,-6.48757 -4.10584,-8.78256 -4.89306,-4.19474 C 135.86812,58.77327 134.63975,65 131.99337,65 z m 7.09681,-14.80708 c 1.77809,3.7509 3.45813,6.80708 3.93178,6.80708 0.47365,0 2.93879,-2.7 5.47808,-6 2.53929,-3.3 5.05676,-6 5.59438,-6 0.61456,0 0.72523,3.3415 0.29807,9 -0.43507,5.76332 -0.32126,9 0.31647,9 0.54773,0 1.30334,-4.1625 1.67913,-9.25 0.37579,-5.0875 0.77971,-10.10157 0.8976,-11.14237 C 157.7423,38.57613 155.03481,40.20842 150,47 c -2.88798,3.89567 -5.75693,6.91925 -6.37544,6.71907 -0.61851,-0.20018 -2.19648,-3.38656 -3.5066,-7.08084 -1.3136,-3.70408 -2.88329,-6.54979 -3.49954,-6.34437 -0.61463,0.20488 -1.4127,2.43619 -1.7735,4.95847 -0.3608,2.52228 -1.3735,7.0541 -2.25046,10.07072 C 130.75667,61.64485 130.63922,63 131.9291,63 c 0.51101,0 1.43951,-2.5875 2.06334,-5.75 1.86614,-7.92391 3.31966,-10.80799 5.09774,-7.05708 z"
     id="path3019"
     inkscape:connector-curvature="0"
     sodipodi:nodetypes="sssssscsssssscsscszsssssssssssssscz" />
  <path
     style="fill:#000000"
     d="m 236.41093,62.50441 c -2.39898,-3.66131 -1.10269,-8.693 3.48084,-13.5113 C 242.68077,46.06126 244.49035,45 246.7005,45 c 2.78686,0 3.11403,-0.38946 4.41021,-5.25 1.07493,-4.03089 1.89171,-5.32033 3.51739,-5.55287 3.21249,-0.45953 3.56302,2.1385 1.36078,10.08557 C 254.89499,48.23011 254,53.11422 254,55.13628 c 0,3.18415 0.26783,3.60644 2,3.15347 1.49804,-0.39175 2,-0.0307 2,1.43863 0,4.56621 -6.9673,7.06975 -9.01691,3.24002 l -1.08728,-2.0316 -2.58276,2.0316 c -3.51764,2.76697 -6.90064,2.59064 -8.90212,-0.46399 z"
     id="path3017"
     inkscape:connector-curvature="0" />
  <path
     style="fill:#5cb5e4;fill-opacity:1"
     d="m 244.55079,60.78139 c 3.80066,-2.9896 5.16959,-3.03163 5.88512,-0.1807 0.33121,1.31962 1.24206,2.39931 2.02413,2.39931 2.05374,0 2.79272,-1.68903 1.03422,-2.36383 -2.11008,-0.80971 -1.9369,-8.58315 0.37713,-16.92828 1.02927,-3.71185 1.51284,-6.97042 1.07461,-7.24127 -0.43824,-0.27084 -1.35197,1.98837 -2.03052,5.02047 C 251.73365,46.76805 251.54685,47 248.47573,47 c -6.18401,0 -12.8855,8.61047 -10.60204,13.62213 1.34962,2.96208 3.06196,3.00292 6.6771,0.15926 z"
     id="path3015"
     inkscape:connector-curvature="0" />
  <path
     style="fill:#000000;fill-opacity:1"
     d="M 239.46487,59.94316 C 237.62219,56.96165 243.37233,48 247.12807,48 c 4.05549,0 3.53962,5.00323 -1.01904,9.88328 -2.96891,3.17823 -5.47315,3.95462 -6.64416,2.05988 z"
     id="path3013"
     inkscape:connector-curvature="0" />
  <path
     style="fill:#ffffff"
     d="m 245.44911,55.65561 c 4.38643,-5.75091 2.73514,-8.04015 -1.86022,-2.57889 C 240.97784,56.17979 240.1971,59 241.94911,59 c 0.52201,0 2.09701,-1.50498 3.5,-3.34439 z"
     id="path3011"
     inkscape:connector-curvature="0" />
  <path
     style="fill:#000000"
     d="m 357.93043,40.41618 c -1.77644,-2.14049 0.0104,-4.91618 3.16486,-4.91618 2.72109,0 3.74779,2.77923 1.86484,5.04804 -1.56829,1.88967 -3.39165,1.84187 -5.0297,-0.13186 z"
     id="path3009"
     inkscape:connector-curvature="0" />
  <path
     style="fill:#5cb5e4;fill-opacity:1"
     d="M 361.77083,38.1875 C 361.98854,37.53437 361.45417,37 360.58333,37 359.7125,37 359,37.7125 359,38.58333 c 0,1.76593 2.15276,1.45839 2.77083,-0.39583 z"
     id="path3007"
     inkscape:connector-curvature="0" />
  <path
     style="fill:#000000"
     d="m 79.654988,24.17126 c -4.144752,-4.5799 0.434315,-11.81849 5.900704,-9.32784 1.36057,0.61992 2.980969,2.24032 3.600887,3.60089 2.531736,5.55656 -5.354242,10.30972 -9.501591,5.72695 z"
     id="path3005"
     inkscape:connector-curvature="0" />
  <path
     style="fill:#5ad1df;fill-opacity:1"
     d="M 87.63349,21.51273 C 88.424347,19.45179 86.171936,16 84.036245,16 82.057751,16 79,18.47196 79,20.07143 c 0,0.51071 0.910313,1.83888 2.022918,2.95149 1.631406,1.6314 2.416493,1.81228 4.056487,0.93458 1.118463,-0.59858 2.267801,-1.69873 2.554085,-2.44477 z"
     id="path3003"
     inkscape:connector-curvature="0" />
  <path
     style="fill:#000000"
     d="M 48.556704,10.77749 C 47.700517,9.55512 47,7.82486 47,6.93248 c 0,-2.76477 3.510747,-5.10226 7.138405,-4.75281 4.073605,0.39239 5.930811,4.17824 4.061906,8.28004 -1.559532,3.4228 -7.335455,3.61313 -9.643607,0.31778 z"
     id="path3001"
     inkscape:connector-curvature="0" />
  <path
     style="fill:#5cb5e4;fill-opacity:1"
     d="M 55.065741,10.96482 C 56.163301,10.37742 57,8.87865 57,7.5 57,5.46499 54.610151,3 52.63717,3 51.592429,3 49,6.20742 49,7.5 c 0,1.29258 2.592429,4.5 3.63717,4.5 0.271872,0 1.364729,-0.46583 2.428571,-1.03518 z"
     id="path2995"
     inkscape:connector-curvature="0" />
</svg>
