<?xml version="1.0" encoding="UTF-8" standalone="no"?>
<!-- Created with Inkscape (http://www.inkscape.org/) -->

<svg
   xmlns:dc="http://purl.org/dc/elements/1.1/"
   xmlns:cc="http://creativecommons.org/ns#"
   xmlns:rdf="http://www.w3.org/1999/02/22-rdf-syntax-ns#"
   xmlns:svg="http://www.w3.org/2000/svg"
   xmlns="http://www.w3.org/2000/svg"
   xmlns:sodipodi="http://sodipodi.sourceforge.net/DTD/sodipodi-0.dtd"
   xmlns:inkscape="http://www.inkscape.org/namespaces/inkscape"
   id="svg2985"
   version="1.1"
   inkscape:version="0.48.4 r9939"
   width="104.01566"
   height="103.77038"
   sodipodi:docname="logo-solo.svg">
  <metadata
     id="metadata2991">
    <rdf:RDF>
      <cc:Work
         rdf:about="">
        <dc:format>image/svg+xml</dc:format>
        <dc:type
           rdf:resource="http://purl.org/dc/dcmitype/StillImage" />
        <dc:title></dc:title>
      </cc:Work>
    </rdf:RDF>
  </metadata>
  <defs
     id="defs2989" />
  <sodipodi:namedview
     pagecolor="#ffffff"
     bordercolor="#666666"
     borderopacity="1"
     objecttolerance="10"
     gridtolerance="10"
     guidetolerance="10"
     inkscape:pageopacity="0"
     inkscape:pageshadow="2"
     inkscape:window-width="1366"
     inkscape:window-height="717"
     id="namedview2987"
     showgrid="false"
     inkscape:zoom="1.5326633"
     inkscape:cx="258.16821"
     inkscape:cy="25.996653"
     inkscape:window-x="0"
     inkscape:window-y="26"
     inkscape:window-maximized="1"
     inkscape:current-layer="svg2985"
     showborder="true"
     fit-margin-top="3"
     fit-margin-right="3"
     fit-margin-bottom="3"
     fit-margin-left="3" />
  <g
     id="g3067"
     transform="translate(-0.9843424,0.85506411)">
    <path
       inkscape:connector-curvature="0"
       id="path3113"
       d="m 49.222506,98.4433 c -2.544651,-1.78235 -3.019638,-6.61981 -0.849083,-8.64742 1.147699,-1.07211 0.902851,-1.48082 -1.489778,-2.48685 -2.183313,-0.91801 -3.147582,-2.26716 -4.060815,-5.68163 l -1.197615,-4.47775 -2.447466,1.92517 C 36.433767,81.23324 31.026254,81.62625 29.2,79.8 28.266667,78.86667 28,79.18413 28,81.22857 28,84.51713 25.60317,87 22.428571,87 19.588122,87 16,83.77528 16,81.22251 16,78.33394 18.930672,75 21.46984,75 c 2.202574,0 2.282589,-0.19563 1.225474,-2.99625 -0.927787,-2.45799 -0.82236,-3.51867 0.586864,-5.90429 2.34698,-3.97312 2.179098,-4.75721 -1.161642,-5.42535 -3.615465,-0.7231 -6.115963,-3.16641 -6.135849,-5.99554 -0.0089,-1.26304 -0.324061,-1.71618 -0.75,-1.07827 -1.728129,2.58811 -5.184095,3.53287 -8.0037927,2.18801 -3.7867318,-1.8061 -4.4164921,-7.84448 -1.0630887,-10.19329 3.0090582,-2.10763 5.4131664,-2.01405 7.7280274,0.30081 1.861111,1.86111 1.906502,1.8425 2.4783,-1.0165 0.636431,-3.18215 3.528963,-4.79821 8.940967,-4.99533 1.751695,-0.0638 2.441875,-0.31323 1.533732,-0.55429 -2.331117,-0.61878 -4.204966,-5.74769 -3.557535,-9.73734 0.50202,-3.09358 0.306735,-3.42276 -2.345173,-3.95315 -5.100414,-1.02008 -5.385125,-9.98897 -0.357153,-11.25091 6.303128,-1.58198 10.100749,3.74159 6.403026,8.97588 L 24.776732,26.5 l 3.16232,-3.25 c 3.847384,-3.95406 7.726505,-4.24285 11.734223,-0.87359 L 42.5,24.75282 42.719913,21.7468 c 0.120951,-1.65331 0.918825,-4.07269 1.773052,-5.37641 C 45.875775,14.25996 46.794262,14 52.868065,14 c 7.598158,0 9.406795,1.13209 10.570803,6.61663 l 0.661455,3.11662 3.661281,-1.86662 C 69.775308,20.83998 72.166156,20 73.0746,20 74.853127,20 84,29.20682 84,30.997 c 0,0.59547 -0.876413,2.80059 -1.947583,4.90025 l -1.947584,3.81758 3.931267,1.17784 c 4.141223,1.24074 5.954198,3.45186 5.978642,7.29159 L 90.029484,50.5 91.287913,48 C 93.794647,43.02011 102,45.05381 102,50.65499 102,53.43921 98.740094,57 96.19113,57 c -2.1397,0 -4.745146,-1.89585 -5.497149,-4 -0.338753,-0.94785 -0.565147,-0.64758 -0.615034,0.81574 -0.129197,3.78971 -1.862279,5.97879 -5.32063,6.72058 -4.723359,1.01311 -5.035388,1.39187 -3.312654,4.0211 1.868847,2.85222 2.037348,8.556 0.304337,10.30183 -1.002273,1.00968 -0.901652,1.12662 0.50772,0.59004 C 85.323382,74.28214 89,77.57502 89,81.48787 89,85.27019 86.988046,87 82.588794,87 c -3.020319,0 -6.145531,-4.09983 -5.1395,-6.74228 0.536575,-1.40937 0.419638,-1.50999 -0.590048,-0.50772 -1.562788,1.55131 -6.267807,1.61962 -9.174987,0.13321 C 64.562394,78.28703 57,70.81705 57,69.32952 c 0,-0.86098 1.71954,-1.23352 5.485951,-1.18854 4.291789,0.0513 6.522972,-0.54585 10.25,-2.74314 L 77.5,62.58917 73.25,61.73574 C 70.9125,61.26635 69,60.44504 69,59.9106 69,59.37616 70.547525,57.58015 72.438944,55.91946 75.686036,53.06848 76.928299,50.51735 78.486545,43.5 l 0.66617,-3 -2.881077,2.75 c -1.584591,1.5125 -3.64927,2.75 -4.588174,2.75 -1.432582,0 -1.603868,-0.64557 -1.065152,-4.01452 0.533327,-3.33524 0.07001,-5.15419 -2.738182,-10.75 L 64.5,24.5 64.19774,29.75 c -0.357167,6.2037 -1.596495,6.63012 -5.403277,1.85912 -1.68485,-2.1116 -4.48718,-3.99788 -7.428139,-4.99997 -7.033627,-2.3966 -7.964843,-2.10916 -4.913848,1.51674 1.446645,1.71924 2.486744,3.55645 2.311331,4.08269 -0.175413,0.52624 -3.00653,1.03453 -6.29137,1.12952 -4.620872,0.13364 -6.829133,0.76362 -9.758094,2.7838 l -3.785657,2.61108 4.035657,0.64533 c 4.618666,0.73855 5.239489,2.60289 1.649959,4.95484 C 31.863552,46.13551 28,53.52866 28,56.99004 l 0,2.35859 2.314451,-2.17432 C 31.587399,55.97844 33.392717,55 34.326269,55 c 1.407682,0 1.592828,0.65374 1.084842,3.83052 -0.645606,4.03739 2.380989,12.92212 5.198488,15.26044 C 41.762695,75.04794 42,74.45596 42,70.62245 c 0,-5.50067 1.578539,-6.03635 4.829671,-1.63896 2.559422,3.4618 6.228325,5.56156 11.419255,6.53539 5.409866,1.01489 6.330982,2.63155 4.098077,7.19257 -1.015852,2.07502 -2.810683,4.24347 -3.988513,4.81878 -1.900522,0.92831 -1.984921,1.26017 -0.75,2.94902 C 59.548615,93.13254 59.344486,95.65551 57,98 c -2.402613,2.40261 -4.786212,2.53847 -7.777494,0.4433 z"
       style="fill:#000000" />
    <path
       inkscape:connector-curvature="0"
       id="path3111"
       d="m 55.428571,96.42857 c 1.909714,-1.90971 1.944143,-2.53659 0.265401,-4.83241 -1.864418,-2.54974 -6.099206,-1.76465 -6.520736,1.20888 -0.627011,4.42304 3.224669,6.6542 6.255335,3.62353 z"
       style="fill:#59de8f;fill-opacity:0.9982456" />
    <path
       inkscape:connector-curvature="0"
       id="path3109"
       d="M 58.586199,85.23469 C 59.183609,84.83061 60.1727,83.0375 60.78418,81.25 61.770896,78.3656 61.690974,78 60.073707,78 56.656223,78 49.534361,74.92798 46.653423,72.21115 L 43.778502,69.5 l 0.41584,6.8709 c 0.318265,5.25866 0.858392,7.19449 2.301879,8.25 1.983332,1.45024 10.23403,1.86912 12.089978,0.61379 z"
       style="fill:#59de8f;fill-opacity:0.9982456" />
    <path
       inkscape:connector-curvature="0"
       id="path3107"
       d="M 24.418213,84.39301 C 25.336844,84.0405 26,82.618 26,81 c 0,-4.18073 -5.059294,-5.62624 -7,-2 -2.040667,3.81302 1.180478,7.01918 5.418213,5.39301 z"
       style="fill:#58dd75;fill-opacity:1" />
    <path
       inkscape:connector-curvature="0"
       id="path3105"
       d="m 86.800558,81.9144 c 0.362526,-3.11868 -1.960785,-5.31571 -4.701418,-4.44587 -4.695363,1.49026 -3.107384,7.90425 1.815264,7.33203 1.93875,-0.22537 2.660787,-0.94741 2.886154,-2.88616 z"
       style="fill:#59dea7;fill-opacity:1" />
    <path
       inkscape:connector-curvature="0"
       id="path3103"
       d="M 37.370365,77.71845 C 39.011428,76.51848 38.928113,76.06643 36.061495,70.6169 34.312438,67.29189 33,63.27358 33,61.24347 c 0,-3.54991 -0.0021,-3.55155 -2.107927,-1.64846 -2.786731,2.51844 -5.468151,6.38443 -6.310069,9.09766 -0.519238,1.67334 0.187796,3.15364 2.985167,6.25 3.820387,4.22871 6.700803,5.0443 9.803194,2.77578 z"
       style="fill:#58dd75;fill-opacity:1" />
    <path
       inkscape:connector-curvature="0"
       id="path3101"
       d="M 78.383638,74.99712 C 80.372637,72.79554 82,70.74819 82,70.44746 82,70.14673 81.296378,68.54003 80.436397,66.877 78.879879,63.86703 78.860619,63.86131 76.186397,65.61466 70.855135,69.11009 68.42448,69.98817 64,70.01702 l -4.5,0.0293 4.69179,4.47682 c 6.168626,5.88599 9.210607,5.98758 14.191848,0.47394 z"
       style="fill:#59dea7;fill-opacity:1" />
    <path
       inkscape:connector-curvature="0"
       id="path3099"
       d="M 84.532119,58.55103 C 87.936395,57.12863 88,56.99332 88,51.17347 c 0,-6.33427 -0.746177,-7.56969 -5.255594,-8.70148 -2.254192,-0.56577 -2.745402,-0.35685 -2.749983,1.1696 -0.01282,4.27331 -2.413809,9.9778 -5.497499,13.06149 L 71.2,60 l 4.932119,0 c 2.712665,0 6.492665,-0.65204 8.4,-1.44897 z"
       style="fill:#5bdfd2;fill-opacity:1" />
    <path
       inkscape:connector-curvature="0"
       id="path3097"
       d="m 26,56.46788 c 0,-3.31789 2.570416,-9.38171 5.133238,-12.1097 2.015523,-2.14543 2.016275,-2.17595 0.0689,-2.79402 -2.512748,-0.79752 -11.411444,1.16729 -12.41155,2.74044 -0.417978,0.65747 -0.766851,3.53238 -0.775273,6.3887 -0.01251,4.24311 0.391322,5.47811 2.207193,6.75 C 23.645199,59.84064 26,59.44308 26,56.46788 z"
       style="fill:#61de55;fill-opacity:1" />
    <path
       inkscape:connector-curvature="0"
       id="path3095"
       d="m 98.954319,53.55504 c 0.659565,-0.79472 1.052161,-2.48222 0.872445,-3.75 C 99.227536,45.578 92,46.60985 92,50.92244 c 0,3.6785 4.631278,5.4317 6.954319,2.6326 z"
       style="fill:#5bdfd2;fill-opacity:1" />
    <path
       inkscape:connector-curvature="0"
       id="path3093"
       d="m 12.960174,52.54799 c 1.450683,-1.74797 0.5567,-5.13567 -1.570683,-5.95202 -3.48812,-1.33852 -7.3250779,4.13511 -4.7228243,6.73736 1.1883726,1.18838 5.0560133,0.70575 6.2935073,-0.78534 z"
       style="fill:#61de55;fill-opacity:1" />
    <path
       inkscape:connector-curvature="0"
       id="path3091"
       d="M 79.419371,36.54983 C 80.838717,34.37724 82,31.92121 82,31.09199 82,28.92618 74.939214,22 72.731311,22 c -1.556112,0 -5.264742,1.44787 -6.582298,2.56977 -0.193043,0.16438 0.763762,1.79093 2.126234,3.61455 3.03411,4.06106 5.083642,10.15794 4.478625,13.32288 -0.437674,2.28955 -0.385332,2.30899 1.817108,0.67513 1.24727,-0.92528 3.429046,-3.45991 4.848391,-5.6325 z"
       style="fill:#5ad1df;fill-opacity:1" />
    <path
       inkscape:connector-curvature="0"
       id="path3089"
       d="M 29.508832,35.98571 C 30.817152,33.8688 38.089364,31 42.147253,31 l 4.226929,0 -2.937091,-3.08928 C 40.138603,24.44132 35.971172,22 33.347267,22 30.727483,22 25,28.01199 25,30.76191 c 0,4.42979 2.913433,7.80521 4.508832,5.2238 z"
       style="fill:#93df58;fill-opacity:1" />
    <path
       inkscape:connector-curvature="0"
       id="path3087"
       d="M 61.52558,20.28466 C 60.800651,16.42046 58.55652,15 53.176525,15 c -4.588782,0 -7.913721,2.36934 -8.36635,5.96184 -0.274748,2.18066 0.166521,2.54442 3.863425,3.18481 5.255068,0.91031 9.983414,3.32562 11.587571,5.91912 1.119156,1.80937 1.269608,1.59116 1.557443,-2.25895 0.175237,-2.34399 0.04337,-5.72896 -0.293034,-7.52216 z"
       style="fill:#5cb5e4;fill-opacity:1" />
    <path
       inkscape:connector-curvature="0"
       id="path3085"
       d="m 26,22 c 1.636852,-3.05849 -0.42816,-6.20147 -3.817258,-5.80993 -2.739018,0.31643 -4.008168,3.21652 -2.793208,6.38266 C 20.213361,24.71958 24.755114,24.32609 26,22 z"
       style="fill:#93df58;fill-opacity:1" />
    <path
       inkscape:connector-curvature="0"
       id="path3005"
       d="m 79.654988,24.17126 c -4.144752,-4.5799 0.434315,-11.81849 5.900704,-9.32784 1.36057,0.61992 2.980969,2.24032 3.600887,3.60089 2.531736,5.55656 -5.354242,10.30972 -9.501591,5.72695 z"
       style="fill:#000000" />
    <path
       inkscape:connector-curvature="0"
       id="path3003"
       d="M 87.63349,21.51273 C 88.424347,19.45179 86.171936,16 84.036245,16 82.057751,16 79,18.47196 79,20.07143 c 0,0.51071 0.910313,1.83888 2.022918,2.95149 1.631406,1.6314 2.416493,1.81228 4.056487,0.93458 1.118463,-0.59858 2.267801,-1.69873 2.554085,-2.44477 z"
       style="fill:#5ad1df;fill-opacity:1" />
    <path
       inkscape:connector-curvature="0"
       id="path3001"
       d="M 48.556704,10.77749 C 47.700517,9.55512 47,7.82486 47,6.93248 c 0,-2.76477 3.510747,-5.10226 7.138405,-4.75281 4.073605,0.39239 5.930811,4.17824 4.061906,8.28004 -1.559532,3.4228 -7.335455,3.61313 -9.643607,0.31778 z"
       style="fill:#000000" />
    <path
       inkscape:connector-curvature="0"
       id="path2995"
       d="M 55.065741,10.96482 C 56.163301,10.37742 57,8.87865 57,7.5 57,5.46499 54.610151,3 52.63717,3 51.592429,3 49,6.20742 49,7.5 c 0,1.29258 2.592429,4.5 3.63717,4.5 0.271872,0 1.364729,-0.46583 2.428571,-1.03518 z"
       style="fill:#5cb5e4;fill-opacity:1" />
  </g>
</svg>
